<svg width="276" height="276" viewBox="0 0 276 276" fill="none" xmlns="http://www.w3.org/2000/svg">
<circle cx="138" cy="138" r="138" fill="white"/>
<path fill-rule="evenodd" clip-rule="evenodd" d="M199.014 142.085L199.048 144.124C196.722 146.137 187.759 150.172 186.888 151.439L188.515 151.082C188.557 152.844 188.883 154.041 188.911 155.097C188.984 157.794 188.371 155.508 187.739 157.672C191.266 156.26 197.672 151.538 200.762 150.913C202.287 148.586 210.446 144.491 212.037 138.646C212.62 136.503 212.5 133.187 211.371 131.662C209.42 134.974 210.062 135.759 206.702 138.617C205.099 139.98 201.834 142.955 199.893 143.52L199.014 142.085Z" fill="#8659D9"/>
<path fill-rule="evenodd" clip-rule="evenodd" d="M200.762 150.913L200.451 152.445C198.638 153.181 195.844 154.728 194.663 155.948C195.109 157.574 194.732 157.75 194.76 160.204C196.676 161.292 196.05 159.593 196.229 161.537C198.835 160.736 199.71 159.05 202.258 158.599C202.963 156.763 207.71 155.34 211.573 150.639C214.998 146.47 216.121 143.264 214.078 137.384C212.021 139.565 213.251 140.818 208.964 145.37C206.725 147.747 203.53 149.61 201.854 151.513L200.762 150.913Z" fill="#7F50E2"/>
<path fill-rule="evenodd" clip-rule="evenodd" d="M128.364 78.6549L52.7905 80.4302C53.1945 81.9939 58.9872 88.5567 60.2691 90.1829C64.8038 95.9355 64.6195 94.4582 62.7959 102.706C60.8918 111.319 46.1486 185.956 46.4845 188.387L72.9301 187.797C73.9808 185.235 75.0372 178.792 75.5756 175.599C76.4215 170.581 80.4033 153.836 79.7736 150.169C79.09 146.19 77.0009 142.593 76.605 138.481C79.2703 135.694 82.9698 134.743 83.8459 132.419C84.7188 130.103 85.2958 124.824 85.9997 121.741C87.5535 114.932 89.0035 107.337 90.3623 100.199L111.303 99.8224C111.115 103.824 109.321 110.058 108.574 114.291C108.096 117.002 107.641 118.974 107.173 121.709L105.485 128.484C104.862 129.375 85.15 139.622 83.151 140.618C83.7751 145.07 85.9245 150.84 87.2946 155.743C88.2703 159.234 98.495 196.897 100.103 198.658C103.203 197.695 115.976 190.79 120.818 188.455C123.954 186.942 124.289 186.02 124.453 182.04C124.609 178.268 117.729 155.823 116.352 148.842C118.137 147.313 122.795 145.175 124.813 144.061C130.881 140.711 130.163 142.57 131.185 137.294L137.484 104.755C137.967 102.483 139.551 95.7144 139.514 93.7681C139.474 91.5791 130.29 80.619 128.364 78.6549Z" fill="#332E44"/>
<path fill-rule="evenodd" clip-rule="evenodd" d="M175.458 78.2205L134.209 79.1815C134.855 81.0632 140.416 87.5403 141.862 89.4013C146.277 95.0817 145.732 93.2072 144.057 101.841C142.194 111.45 140.318 120.546 138.585 130.225C137.598 135.74 127.75 183.224 127.901 187.157L154.386 186.438C156.643 178.792 159.802 156.474 162.209 146.75C163.664 140.874 159.556 140.079 158.263 135.661C159.187 133.7 160.784 131.838 162.02 129.986C169.023 119.493 166.271 125.094 169.418 109.508C171.462 99.3839 174.047 88.351 175.458 78.2205Z" fill="#ED2B00"/>
<path fill-rule="evenodd" clip-rule="evenodd" d="M172.731 164.008C173.503 165.19 173.867 166.727 174.655 168.148C175.297 169.305 176.255 170.408 177.061 171.398C179.24 174.074 181.692 174.695 183.366 176.537C184.897 177.228 191.239 180.368 192.328 181.549C195.33 181.645 201.854 186.424 204.076 186.404L204.04 186.78C204.088 185.704 203.765 185.882 204.684 185.914C204.598 185.826 204.453 185.579 204.41 185.666L197.769 181.991C196.519 181.386 191.412 178.916 190.42 178.672C186.296 177.214 182.026 174.118 179.236 171.531C175.468 168.039 173.476 164.939 175.296 158.207C177.208 160.619 176.182 163.156 185.049 168.312C186.312 169.046 188.048 169.539 188.858 170.584C191.572 171.692 194.647 172.972 197.526 174.06C199.91 174.962 203.832 177.353 205.878 177.661L202.258 158.598C199.71 159.05 198.835 160.736 196.229 161.537C194.634 162.736 190.288 164.818 188.077 165.96C185.991 167.038 185.653 167.042 183.506 165.651C182.411 164.943 180.773 164.101 180.311 162.886C181.051 162.368 193.91 156.158 194.662 155.948C195.844 154.728 198.638 153.181 200.451 152.445L200.762 150.913C197.672 151.538 191.266 156.26 187.739 157.672C185.134 158.733 181.389 161.269 178.648 161.656C177.808 159.909 177.074 158.474 177.105 155.84L186.888 151.439C187.759 150.173 196.722 146.137 199.048 144.124L199.014 142.085C198.196 130.573 194.001 134.632 201.041 123.117C203.847 118.53 206.99 113.222 210.152 107.943C211.662 105.423 227.81 79.3019 228.6 77.0861L199.128 77.6783C197.554 80.8694 195.327 84.3216 193.424 87.4005L166.746 131.249C165.157 133.817 165.74 134.769 166.555 137.586C167.709 141.571 168.724 146.722 169.706 150.831C170.616 154.641 172.31 159.919 172.731 164.008Z" fill="#ED2B00"/>
<path fill-rule="evenodd" clip-rule="evenodd" d="M195.35 190.74C194.569 188.753 195.962 190.329 193.679 188.891C192.159 188.448 189.764 187.022 188.228 186.184C187.285 185.669 186.695 185.363 185.827 184.802C184.931 184.222 184.667 183.896 183.808 183.444C181.082 182.485 178.859 180.469 178.539 180.353C177.333 179.916 178.356 180.245 177.653 180.305C175.018 180.533 178.719 178.538 177.032 180.598L181.043 197.54C184.468 196.976 191.483 191.808 195.35 190.74Z" fill="#332E44"/>
<path fill-rule="evenodd" clip-rule="evenodd" d="M190.419 178.672C191.412 178.916 196.519 181.386 197.769 181.991L204.41 185.666C204.453 185.579 204.598 185.826 204.684 185.914C206.545 184.736 206.004 182.646 205.811 180.215C205.636 178.019 204.953 179.874 205.997 178.136L205.878 177.661C203.832 177.353 199.91 174.962 197.526 174.06C194.647 172.972 191.572 171.692 188.858 170.584C189.153 171.778 188.938 170.977 189.573 171.774C189.622 171.836 189.73 171.932 189.78 171.989L191.111 173.804C191.115 173.84 191.112 173.966 191.113 174.006C191.113 174.051 191.09 174.187 191.087 174.236C190.881 178.084 190.76 176.77 189.419 177.647C190.482 178.001 190.027 177.574 190.419 178.672Z" fill="#F9827D"/>
<path fill-rule="evenodd" clip-rule="evenodd" d="M190.42 178.672C190.027 177.574 190.482 178.001 189.419 177.647C190.76 176.77 190.881 178.084 191.087 174.236C191.09 174.187 191.113 174.051 191.113 174.005C191.112 173.966 191.115 173.84 191.111 173.804L189.78 171.989C189.73 171.932 189.622 171.836 189.573 171.774C188.938 170.977 189.153 171.778 188.858 170.584C188.048 169.539 186.312 169.046 185.049 168.312C176.182 163.156 177.208 160.619 175.296 158.207C173.476 164.939 175.468 168.039 179.236 171.531C182.026 174.118 186.296 177.214 190.42 178.672Z" fill="#EE2F2F"/>
<path fill-rule="evenodd" clip-rule="evenodd" d="M204.684 185.914C203.765 185.882 204.088 185.704 204.04 186.78C208.243 185.743 217.824 194.811 219.304 198.007C219.195 189.934 220.221 189.575 215.718 184.776C213.978 182.923 208.903 178.389 205.997 178.136C204.953 179.874 205.636 178.019 205.811 180.215C206.004 182.646 206.545 184.736 204.684 185.914Z" fill="#F7CECE"/>
<path fill-rule="evenodd" clip-rule="evenodd" d="M193.679 188.891C195.962 190.329 194.569 188.753 195.35 190.74C198.057 190.656 201.744 193.85 203.884 195.235C205.017 195.967 207.73 197.98 208.482 196.377C209.143 194.965 208.404 195.091 208.381 195.004C207.495 191.613 210.028 192.705 206.767 188.917L204.076 186.404C201.854 186.424 195.33 181.645 192.328 181.549C191.612 183.305 193.25 181.661 193.743 183.959C193.76 184.04 193.774 184.185 193.781 184.269C193.975 186.419 193.263 185.608 193.362 186.857C193.488 188.436 194.28 186.157 193.679 188.891Z" fill="#FBA19D"/>
<path fill-rule="evenodd" clip-rule="evenodd" d="M177.032 180.598C178.719 178.538 175.018 180.533 177.653 180.305C178.356 180.245 177.333 179.916 178.539 180.353C178.859 180.469 181.082 182.485 183.808 183.444C182.791 180.631 184.06 182.882 183.663 179.843C183.576 179.178 183.351 179.105 183.169 177.946C182.969 176.669 182.606 177.424 183.366 176.537C181.692 174.695 179.24 174.074 177.061 171.398C176.255 170.408 175.297 169.305 174.655 168.148C173.867 166.727 173.503 165.19 172.731 164.008C172.377 167.492 169.513 171.484 174.533 176.915C175.169 177.602 175.355 177.659 175.874 178.428C176.684 179.629 176.153 179.441 177.032 180.598Z" fill="#EE2F2F"/>
<path fill-rule="evenodd" clip-rule="evenodd" d="M196.229 161.537C196.05 159.593 196.676 161.292 194.76 160.204C194.732 157.75 195.109 157.574 194.663 155.948C193.91 156.158 181.051 162.368 180.311 162.886C180.774 164.101 182.411 164.943 183.506 165.651C185.653 167.042 185.991 167.038 188.077 165.96C190.288 164.818 194.634 162.736 196.229 161.537Z" fill="#AD9ACF"/>
<path fill-rule="evenodd" clip-rule="evenodd" d="M186.888 151.439L177.105 155.84C177.074 158.474 177.808 159.909 178.648 161.656C181.389 161.269 185.134 158.733 187.739 157.672C188.371 155.508 188.984 157.795 188.911 155.097C188.883 154.041 188.557 152.844 188.515 151.082L186.888 151.439Z" fill="#B7A9CC"/>
<path fill-rule="evenodd" clip-rule="evenodd" d="M183.808 183.444C184.667 183.896 184.931 184.222 185.827 184.801C186.695 185.363 187.285 185.669 188.228 186.184C189.764 187.022 192.159 188.448 193.679 188.891C194.28 186.157 193.488 188.436 193.362 186.857C193.263 185.608 193.975 186.419 193.781 184.269C193.774 184.185 193.76 184.04 193.743 183.959C193.25 181.661 191.612 183.305 192.328 181.549C191.239 180.368 184.897 177.228 183.366 176.537C182.606 177.424 182.969 176.669 183.169 177.946C183.351 179.105 183.576 179.178 183.663 179.843C184.06 182.882 182.791 180.631 183.808 183.444Z" fill="#FB5858"/>
</svg>
