<svg width="190" height="142" viewBox="0 0 190 142" fill="none" xmlns="http://www.w3.org/2000/svg">
<path fill-rule="evenodd" clip-rule="evenodd" d="M157.13 67.3034L157.164 69.3841C154.815 71.4387 145.76 75.5564 144.881 76.8486L146.523 76.4843C146.567 78.2826 146.896 79.5038 146.924 80.5819C146.997 83.3343 146.378 81.0014 145.74 83.2089C149.303 81.7685 155.774 76.95 158.896 76.3118C160.436 73.9378 168.679 69.7584 170.286 63.7939C170.875 61.6076 170.753 58.2238 169.614 56.667C167.642 60.0467 168.29 60.8484 164.896 63.7644C163.277 65.1556 159.978 68.1913 158.018 68.7681L157.13 67.3034Z" fill="#8659D9"/>
<path fill-rule="evenodd" clip-rule="evenodd" d="M158.896 76.3118L158.582 77.8753C156.751 78.6265 153.928 80.2047 152.734 81.4497C153.185 83.1091 152.804 83.2889 152.833 85.7926C154.769 86.9033 154.136 85.17 154.317 87.1532C156.949 86.336 157.833 84.6155 160.407 84.1547C161.12 82.2815 165.915 80.83 169.817 76.0321C173.277 71.7776 174.412 68.5064 172.348 62.5059C170.27 64.7321 171.512 66.0108 167.181 70.6554C164.92 73.0809 161.692 74.9825 160 76.9243L158.896 76.3118Z" fill="#7F50E2"/>
<path fill-rule="evenodd" clip-rule="evenodd" d="M85.759 2.57611L9.41439 4.38772C9.82251 5.98344 15.6744 12.6805 16.9693 14.3399C21.5503 20.2101 21.3641 18.7027 19.5219 27.1194C17.5983 35.9087 2.70473 112.072 3.04406 114.553L29.7595 113.95C30.8209 111.336 31.8881 104.762 32.432 101.503C33.2866 96.3827 37.309 79.2946 36.6728 75.5529C35.9823 71.4921 33.8718 67.8223 33.4719 63.6258C36.1644 60.7819 39.9016 59.8118 40.7867 57.4397C41.6685 55.0766 42.2514 49.69 42.9624 46.5431C44.5321 39.5952 45.997 31.8445 47.3696 24.5606L68.524 24.1766C68.334 28.2604 66.5219 34.6215 65.7675 38.941C65.2843 41.7071 64.825 43.7194 64.352 46.5109L62.6469 53.4239C62.0176 54.3335 42.1041 64.7902 40.0847 65.8064C40.7152 70.35 42.8865 76.2376 44.2706 81.2405C45.2563 84.8028 55.5852 123.237 57.2099 125.033C60.3416 124.051 73.2445 117.004 78.1359 114.622C81.3045 113.078 81.6425 112.137 81.8084 108.076C81.9656 104.226 75.0154 81.323 73.6244 74.1983C75.4273 72.6386 80.1332 70.4572 82.1721 69.3201C88.3021 65.901 87.5768 67.7982 88.6085 62.4144L94.9726 29.2099C95.4598 26.8917 97.0601 19.9845 97.0233 17.9984C96.9821 15.7646 87.7048 4.58042 85.759 2.57611Z" fill="#332E44"/>
<path fill-rule="evenodd" clip-rule="evenodd" d="M133.333 2.13284L91.6634 3.11351C92.3169 5.03366 97.9339 11.6433 99.395 13.5423C103.855 19.3389 103.304 17.4261 101.613 26.2365C99.7299 36.0424 97.8349 45.3236 96.0845 55.2011C95.0872 60.8291 85.1385 109.284 85.2916 113.298L112.046 112.564C114.326 104.761 117.518 81.9869 119.95 72.064C121.419 66.0676 117.269 65.2569 115.963 60.7485C116.896 58.7471 118.51 56.8466 119.758 54.9566C126.833 44.2495 124.053 49.9646 127.232 34.0598C129.297 23.7291 131.908 12.4705 133.333 2.13284Z" fill="#ED2B00"/>
<path fill-rule="evenodd" clip-rule="evenodd" d="M130.579 89.6745C131.359 90.8808 131.726 92.4491 132.522 93.8992C133.171 95.0806 134.138 96.2054 134.953 97.2157C137.154 99.9468 139.631 100.581 141.323 102.46C142.869 103.165 149.275 106.37 150.375 107.575C153.408 107.673 159.999 112.549 162.244 112.529L162.207 112.913C162.256 111.814 161.929 111.996 162.858 112.029C162.771 111.939 162.624 111.687 162.581 111.776L155.872 108.026C154.61 107.408 149.45 104.887 148.448 104.639C144.282 103.151 139.969 99.9917 137.15 97.352C133.344 93.7887 131.331 90.6251 133.17 83.7549C135.101 86.2166 134.065 88.8052 143.022 94.0664C144.299 94.8161 146.052 95.3188 146.87 96.3854C149.612 97.5155 152.718 98.8219 155.627 99.9328C158.035 100.852 161.997 103.293 164.064 103.607L160.407 84.1546C157.833 84.6154 156.949 86.3359 154.316 87.1531C152.705 88.3763 148.315 90.5013 146.081 91.6669C143.974 92.7666 143.633 92.7705 141.463 91.3517C140.357 90.6284 138.703 89.77 138.236 88.5301C138.984 88.0015 151.974 81.6638 152.734 81.4496C153.928 80.2046 156.75 78.6264 158.582 77.8752L158.896 76.3117C155.774 76.9499 149.303 81.7684 145.74 83.2088C143.109 84.2918 139.325 86.8799 136.556 87.2744C135.708 85.4922 134.966 84.0277 134.997 81.3401L144.88 76.8485C145.76 75.5563 154.815 71.4386 157.164 69.384L157.13 67.3033C156.303 55.5563 152.065 59.6981 159.178 47.9478C162.012 43.2661 165.188 37.8496 168.382 32.4628C169.907 29.8916 186.219 3.23611 187.018 0.975074L157.245 1.57932C155.655 4.83569 153.405 8.35853 151.483 11.5004L124.533 56.2462C122.928 58.8662 123.516 59.838 124.34 62.7127C125.506 66.7792 126.531 72.0349 127.523 76.2285C128.443 80.1164 130.153 85.5023 130.579 89.6745Z" fill="#ED2B00"/>
<path fill-rule="evenodd" clip-rule="evenodd" d="M153.429 116.954C152.64 114.926 154.047 116.534 151.741 115.067C150.206 114.614 147.786 113.16 146.234 112.304C145.281 111.779 144.686 111.467 143.809 110.894C142.903 110.302 142.637 109.97 141.769 109.509C139.015 108.53 136.77 106.473 136.446 106.355C135.228 105.909 136.261 106.244 135.551 106.306C132.89 106.538 136.628 104.502 134.924 106.605L138.976 123.893C142.436 123.317 149.522 118.043 153.429 116.954Z" fill="#332E44"/>
<path fill-rule="evenodd" clip-rule="evenodd" d="M148.448 104.639C149.45 104.887 154.61 107.408 155.872 108.026L162.582 111.776C162.625 111.687 162.771 111.939 162.858 112.029C164.738 110.826 164.192 108.694 163.997 106.213C163.82 103.972 163.13 105.865 164.185 104.092L164.065 103.607C161.998 103.292 158.036 100.852 155.627 99.9327C152.718 98.8218 149.612 97.5154 146.871 96.3853C147.169 97.6032 146.951 96.7864 147.592 97.5998C147.642 97.6631 147.752 97.7606 147.802 97.819L149.146 99.6708C149.151 99.7074 149.147 99.8367 149.148 99.8766C149.149 99.9227 149.125 100.062 149.122 100.112C148.915 104.038 148.792 102.698 147.437 103.592C148.511 103.954 148.052 103.518 148.448 104.639Z" fill="#F9827D"/>
<path fill-rule="evenodd" clip-rule="evenodd" d="M148.448 104.639C148.052 103.518 148.511 103.954 147.437 103.592C148.792 102.698 148.915 104.038 149.122 100.112C149.125 100.062 149.149 99.9228 149.148 99.8767C149.147 99.8368 149.151 99.7075 149.146 99.6709L147.802 97.819C147.752 97.7607 147.642 97.6631 147.592 97.5998C146.951 96.7864 147.169 97.6033 146.871 96.3853C146.052 95.3188 144.299 94.8161 143.022 94.0664C134.066 88.8052 135.101 86.2165 133.17 83.7549C131.331 90.625 133.344 93.7886 137.15 97.3519C139.969 99.9917 144.282 103.151 148.448 104.639Z" fill="#EE2F2F"/>
<path fill-rule="evenodd" clip-rule="evenodd" d="M162.858 112.029C161.929 111.996 162.256 111.814 162.207 112.913C166.453 111.854 176.132 121.108 177.626 124.369C177.517 116.131 178.554 115.765 174.004 110.868C172.247 108.977 167.12 104.35 164.185 104.092C163.129 105.865 163.82 103.972 163.996 106.213C164.192 108.694 164.737 110.826 162.858 112.029Z" fill="#F7CECE"/>
<path fill-rule="evenodd" clip-rule="evenodd" d="M151.741 115.066C154.047 116.534 152.639 114.926 153.429 116.954C156.163 116.868 159.887 120.127 162.05 121.54C163.194 122.288 165.935 124.342 166.694 122.706C167.362 121.265 166.615 121.393 166.592 121.305C165.698 117.844 168.256 118.958 164.962 115.093L162.244 112.529C159.999 112.549 153.408 107.673 150.375 107.575C149.652 109.367 151.307 107.689 151.805 110.034C151.823 110.117 151.836 110.265 151.844 110.35C152.039 112.544 151.32 111.717 151.421 112.991C151.548 114.602 152.347 112.277 151.741 115.066Z" fill="#FBA19D"/>
<path fill-rule="evenodd" clip-rule="evenodd" d="M134.924 106.605C136.628 104.502 132.889 106.538 135.551 106.306C136.261 106.244 135.227 105.909 136.446 106.354C136.77 106.473 139.015 108.53 141.769 109.508C140.742 106.638 142.024 108.935 141.622 105.833C141.535 105.156 141.307 105.081 141.124 103.898C140.922 102.595 140.555 103.365 141.323 102.46C139.631 100.581 137.154 99.9468 134.953 97.2157C134.139 96.2054 133.171 95.0806 132.522 93.8992C131.726 92.4492 131.359 90.8809 130.579 89.6745C130.221 93.2298 127.328 97.3033 132.4 102.846C133.041 103.547 133.23 103.605 133.754 104.389C134.572 105.615 134.036 105.424 134.924 106.605Z" fill="#EE2F2F"/>
<path fill-rule="evenodd" clip-rule="evenodd" d="M154.317 87.1529C154.136 85.1697 154.768 86.903 152.833 85.7923C152.804 83.2886 153.185 83.1088 152.734 81.4494C151.974 81.6637 138.984 88.0014 138.237 88.53C138.703 89.7699 140.357 90.6282 141.464 91.3516C143.633 92.7704 143.974 92.7665 146.082 91.6668C148.315 90.5011 152.705 88.3762 154.317 87.1529Z" fill="#AD9ACF"/>
<path fill-rule="evenodd" clip-rule="evenodd" d="M144.881 76.8485L134.997 81.3401C134.966 84.0277 135.708 85.4922 136.556 87.2744C139.325 86.8799 143.109 84.2918 145.74 83.2089C146.378 81.0013 146.997 83.3342 146.924 80.5818C146.896 79.5037 146.567 78.2825 146.523 76.4843L144.881 76.8485Z" fill="#B7A9CC"/>
<path fill-rule="evenodd" clip-rule="evenodd" d="M141.769 109.508C142.637 109.969 142.903 110.302 143.809 110.893C144.686 111.467 145.281 111.779 146.234 112.304C147.786 113.16 150.206 114.614 151.741 115.066C152.348 112.277 151.548 114.602 151.421 112.991C151.32 111.717 152.039 112.544 151.844 110.35C151.836 110.265 151.823 110.117 151.805 110.034C151.307 107.689 149.652 109.367 150.376 107.575C149.276 106.37 142.869 103.165 141.323 102.46C140.555 103.365 140.922 102.595 141.124 103.898C141.307 105.08 141.535 105.155 141.623 105.833C142.024 108.934 140.742 106.638 141.769 109.508Z" fill="#FB5858"/>
<path fill-rule="evenodd" clip-rule="evenodd" d="M105.306 139.902C105.985 137.534 107.96 129.511 107.783 127.413L104.523 127.458L103.565 132.147C103.247 132.906 103.386 132.606 102.978 133.1C102.067 131.626 101.714 129.163 100.965 127.709L98.3561 127.904L97.2794 133.072C95.4816 132.658 96.3558 130.932 94.7831 128.232L92.0702 128.642C91.5551 131.319 94.1645 138.657 95.5542 140.476L98.9903 140.113L100.229 136.746L101.722 140.291L105.306 139.902Z" fill="#332E44"/>
<path fill-rule="evenodd" clip-rule="evenodd" d="M54.7918 139.875C54.6002 137.004 53.4593 138.666 54.028 136.442C54.3742 135.088 54.9914 135.189 54.9021 132.665C54.7804 129.228 52.9289 128.38 49.7092 128.454C44.9723 128.562 44.9563 128.491 45.083 132.882C45.1589 135.515 45.074 138.662 45.5137 141.264L48.33 141.143C49.382 139.912 48.8406 140.031 49.4478 138.652C51.5531 139.038 50.8025 139.739 52.0794 140.766C53.3863 141.817 53.9997 140.725 54.7918 139.875Z" fill="#332E44"/>
<path fill-rule="evenodd" clip-rule="evenodd" d="M127.213 132.915C127.684 131.021 128.661 130.734 129.459 129.025C128.894 128.06 128.195 127.374 127.051 126.791C125.364 127.668 124.822 129.19 123.312 130.614L122.949 127.09C118.96 126.813 119.136 127.497 119.233 131.151C119.304 133.841 119.244 136.862 119.557 139.576L123.065 139.391C123.566 138.045 123.293 137.608 123.95 136.215C125.555 136.75 124.709 136.503 125.691 137.44L127.481 138.95L129.631 136.216C128.95 134.355 128.244 134.44 127.213 132.915Z" fill="#332E44"/>
<path fill-rule="evenodd" clip-rule="evenodd" d="M85.9085 132.436C86.6252 131.947 84.7455 131.716 90.6472 131.269L90.4724 127.88L82.2904 128.793L82.6202 140.889L90.8345 140.031L90.6455 136.754L85.9705 136.992C87.3306 135.448 88.6095 136.233 90.6466 135.377L90.5802 132.7L85.9085 132.436Z" fill="#332E44"/>
<path fill-rule="evenodd" clip-rule="evenodd" d="M130.71 127.348C130.653 131.983 130.047 140.431 136.127 139.174C141.434 138.077 141.123 131.383 140.459 126.137L137.268 126.643C137.16 129.105 137.769 132.166 136.721 134.397C133.497 135.118 134.453 132.68 134.044 126.844L130.71 127.348Z" fill="#332E44"/>
<path fill-rule="evenodd" clip-rule="evenodd" d="M59.5316 133.049C59.6204 131.872 61.544 132.34 62.6196 132.07C64.6081 131.57 64.3617 132.358 64.2885 129.581C63.018 128.602 62.0597 128.761 60.1464 128.955C58.7764 129.094 57.4055 129.258 55.9585 129.447L56.2189 141.47L64.496 140.743L64.4178 137.458C60.7306 137.339 62.7499 138.193 59.6462 136.883L64.2783 136.02L64.2112 133.291C62.711 133.261 60.5851 133.763 59.5316 133.049Z" fill="#332E44"/>
<path fill-rule="evenodd" clip-rule="evenodd" d="M69.2023 128.879C63.5742 129.085 65.1518 129.685 68.1063 138.009L69.9223 141.128C74.952 140.913 73.4188 140.416 74.6777 136.172C75.3449 133.923 76.3073 130.943 75.9325 128.226L72.8657 128.388C72.2741 130.231 72.0328 132.665 71.3301 134.361L70.8575 133.756C69.9368 132.347 69.5121 130.485 69.2023 128.879Z" fill="#332E44"/>
<path fill-rule="evenodd" clip-rule="evenodd" d="M145.855 139.295C147.465 137.767 152.345 128.78 152.178 126.435L149.352 126.038L147.511 128.615C146.003 127.989 145.966 127.403 144.615 126.56C143.083 127.344 143.15 127.502 142.006 128.734C142.832 130.69 144.284 130.845 145.436 132.971L143.277 139.097L145.855 139.295Z" fill="#332E44"/>
<path fill-rule="evenodd" clip-rule="evenodd" d="M77.8116 140.477C81.8312 140.811 81.776 140.039 81.6847 136.4C81.6181 133.749 81.6951 130.63 81.1967 128.061C77.1168 127.829 77.344 128.203 77.4797 132.127C77.5751 134.882 77.5378 137.746 77.8116 140.477Z" fill="#332E44"/>
</svg>
