<svg width="188" height="123" viewBox="0 0 188 123" fill="none" xmlns="http://www.w3.org/2000/svg">
<path fill-rule="evenodd" clip-rule="evenodd" d="M155.014 65.0849L155.048 67.124C152.722 69.1373 143.759 73.1725 142.888 74.4388L144.515 74.0818C144.557 75.844 144.883 77.0408 144.911 78.0972C144.984 80.7945 144.371 78.5083 143.739 80.6716C147.266 79.2601 153.672 74.5382 156.762 73.9128C158.287 71.5864 166.446 67.4908 168.037 61.6458C168.62 59.5033 168.5 56.1873 167.371 54.6617C165.42 57.9737 166.062 58.7593 162.702 61.6168C161.099 62.9801 157.834 65.955 155.893 66.5202L155.014 65.0849Z" fill="#8659D9"/>
<path fill-rule="evenodd" clip-rule="evenodd" d="M156.762 73.9128L156.451 75.4449C154.638 76.1811 151.844 77.7277 150.663 78.9477C151.109 80.5738 150.732 80.75 150.76 83.2035C152.676 84.292 152.05 82.5934 152.229 84.5369C154.835 83.7361 155.71 82.05 158.258 81.5985C158.963 79.7628 163.71 78.3404 167.573 73.6387C170.998 69.4695 172.121 66.2639 170.078 60.3835C168.021 62.5651 169.251 63.8182 164.964 68.3698C162.725 70.7466 159.53 72.6101 157.854 74.513L156.762 73.9128Z" fill="#7F50E2"/>
<path fill-rule="evenodd" clip-rule="evenodd" d="M84.3639 1.65483L8.79051 3.43013C9.19451 4.99387 14.9872 11.5567 16.2691 13.1828C20.8038 18.9354 20.6195 17.4582 18.7959 25.7062C16.8918 34.3193 2.14862 108.956 2.48453 111.387L28.9301 110.796C29.9808 108.235 31.0372 101.792 31.5756 98.599C32.4215 93.5813 36.4033 76.8356 35.7736 73.169C35.09 69.1895 33.0009 65.5933 32.605 61.4809C35.2703 58.694 38.9698 57.7433 39.8459 55.4187C40.7188 53.103 41.2958 47.8244 41.9997 44.7406C43.5535 37.9319 45.0035 30.3366 46.3623 23.1987L67.303 22.8224C67.115 26.8243 65.3211 33.058 64.5743 37.2909C64.096 40.0015 63.6414 41.9735 63.1731 44.709L61.4853 51.4835C60.8623 52.3748 41.15 62.6219 39.151 63.6178C39.7751 68.0703 41.9245 73.8399 43.2946 78.7425C44.2703 82.2335 54.495 119.897 56.1032 121.657C59.2032 120.695 71.9758 113.79 76.8179 111.455C79.9544 109.942 80.289 109.02 80.4532 105.04C80.6089 101.268 73.7288 78.8233 72.3519 71.8415C74.1365 70.3131 78.795 68.1754 80.8132 67.061C86.8813 63.7105 86.1633 65.5696 87.1847 60.2938L93.4844 27.7548C93.9667 25.483 95.5509 18.7143 95.5145 16.768C95.4737 14.579 86.29 3.61896 84.3639 1.65483Z" fill="white"/>
<path fill-rule="evenodd" clip-rule="evenodd" d="M131.458 1.22043L90.2086 2.18144C90.8555 4.0631 96.4157 10.5402 97.8621 12.4012C102.277 18.0816 101.732 16.2072 100.057 24.8409C98.1936 34.4504 96.3177 43.5455 94.5851 53.2251C93.5979 58.7402 83.7496 106.224 83.9012 110.157L110.386 109.438C112.643 101.792 115.802 79.474 118.209 69.75C119.664 63.8737 115.556 63.0793 114.263 58.6612C115.187 56.7 116.784 54.8376 118.02 52.9855C125.023 42.4929 122.271 48.0935 125.418 32.5075C127.462 22.3838 130.047 11.3509 131.458 1.22043Z" fill="#ED2B00"/>
<path fill-rule="evenodd" clip-rule="evenodd" d="M128.731 87.0077C129.503 88.1899 129.867 89.7267 130.655 91.1477C131.297 92.3055 132.255 93.4077 133.061 94.3978C135.24 97.0741 137.692 97.6952 139.366 99.5371C140.897 100.228 147.239 103.368 148.328 104.549C151.33 104.645 157.854 109.424 160.076 109.404L160.04 109.78C160.088 108.704 159.765 108.882 160.684 108.914C160.598 108.826 160.453 108.579 160.41 108.666L153.769 104.991C152.519 104.386 147.412 101.916 146.42 101.672C142.296 100.214 138.026 97.1182 135.236 94.5313C131.468 91.0395 129.476 87.9393 131.296 81.2068C133.208 83.6191 132.182 86.1559 141.049 91.3117C142.312 92.0463 144.048 92.539 144.858 93.5841C147.572 94.6916 150.647 95.9718 153.526 97.0604C155.91 97.9615 159.832 100.353 161.878 100.661L158.258 81.5985C155.71 82.05 154.835 83.7361 152.229 84.5369C150.634 85.7356 146.288 87.818 144.077 88.9602C141.991 90.0379 141.653 90.0417 139.506 88.6514C138.411 87.9425 136.773 87.1014 136.311 85.8863C137.051 85.3683 149.91 79.1576 150.662 78.9477C151.844 77.7277 154.638 76.1811 156.451 75.4449L156.762 73.9128C153.672 74.5382 147.266 79.2601 143.739 80.6717C141.134 81.7329 137.389 84.2691 134.648 84.6558C133.808 82.9092 133.074 81.4741 133.105 78.8404L142.888 74.4388C143.759 73.1726 152.722 69.1373 155.048 67.124L155.014 65.085C154.196 53.5734 150.001 57.6322 157.041 46.1174C159.847 41.5295 162.99 36.2216 166.152 30.9427C167.662 28.4231 183.81 2.30187 184.6 0.0861466L155.128 0.678285C153.554 3.86939 151.327 7.32161 149.424 10.4005L122.746 54.2495C121.157 56.8169 121.74 57.7693 122.555 60.5864C123.709 64.5713 124.724 69.7217 125.706 73.8313C126.616 77.6412 128.31 82.9192 128.731 87.0077Z" fill="#ED2B00"/>
<path fill-rule="evenodd" clip-rule="evenodd" d="M151.35 113.74C150.569 111.753 151.962 113.329 149.679 111.891C148.159 111.448 145.764 110.022 144.228 109.184C143.285 108.669 142.695 108.363 141.827 107.801C140.931 107.222 140.667 106.896 139.808 106.444C137.082 105.485 134.859 103.469 134.539 103.353C133.333 102.916 134.356 103.245 133.653 103.305C131.018 103.533 134.719 101.538 133.032 103.598L137.043 120.54C140.468 119.976 147.483 114.808 151.35 113.74Z" fill="#332E44"/>
<path fill-rule="evenodd" clip-rule="evenodd" d="M146.419 101.672C147.412 101.916 152.519 104.386 153.769 104.991L160.41 108.666C160.453 108.579 160.598 108.826 160.684 108.914C162.545 107.736 162.004 105.646 161.811 103.215C161.636 101.019 160.953 102.874 161.997 101.136L161.878 100.661C159.832 100.353 155.91 97.9616 153.526 97.0604C150.647 95.9718 147.572 94.6916 144.858 93.5841C145.153 94.7777 144.938 93.9772 145.573 94.7743C145.622 94.8363 145.73 94.9319 145.78 94.9891L147.111 96.8038C147.115 96.8397 147.112 96.9664 147.113 97.0055C147.113 97.0507 147.09 97.1867 147.087 97.2364C146.881 101.084 146.76 99.7704 145.419 100.647C146.482 101.001 146.027 100.574 146.419 101.672Z" fill="#F9827D"/>
<path fill-rule="evenodd" clip-rule="evenodd" d="M146.42 101.672C146.027 100.574 146.482 101.001 145.419 100.647C146.76 99.7704 146.881 101.084 147.087 97.2363C147.09 97.1867 147.113 97.0506 147.113 97.0055C147.112 96.9663 147.115 96.8397 147.111 96.8038L145.78 94.9891C145.73 94.9318 145.622 94.8363 145.573 94.7742C144.938 93.9772 145.153 94.7776 144.858 93.5841C144.048 92.5389 142.312 92.0463 141.049 91.3117C132.182 86.1559 133.208 83.6191 131.296 81.2068C129.476 87.9392 131.468 91.0394 135.236 94.5313C138.026 97.1182 142.296 100.214 146.42 101.672Z" fill="#EE2F2F"/>
<path fill-rule="evenodd" clip-rule="evenodd" d="M160.684 108.914C159.765 108.882 160.088 108.704 160.04 109.78C164.243 108.743 173.824 117.811 175.304 121.007C175.195 112.934 176.221 112.575 171.718 107.776C169.978 105.923 164.903 101.389 161.997 101.136C160.953 102.874 161.636 101.019 161.811 103.215C162.004 105.646 162.545 107.736 160.684 108.914Z" fill="#F7CECE"/>
<path fill-rule="evenodd" clip-rule="evenodd" d="M149.679 111.891C151.962 113.329 150.569 111.753 151.35 113.74C154.057 113.656 157.744 116.85 159.884 118.235C161.017 118.967 163.73 120.98 164.482 119.377C165.143 117.965 164.404 118.091 164.381 118.004C163.495 114.613 166.028 115.705 162.767 111.917L160.076 109.404C157.854 109.424 151.33 104.645 148.328 104.549C147.612 106.305 149.25 104.661 149.743 106.959C149.76 107.04 149.774 107.185 149.781 107.269C149.975 109.419 149.263 108.608 149.362 109.857C149.488 111.436 150.28 109.157 149.679 111.891Z" fill="#FBA19D"/>
<path fill-rule="evenodd" clip-rule="evenodd" d="M133.032 103.598C134.719 101.538 131.018 103.533 133.653 103.305C134.356 103.245 133.333 102.916 134.539 103.353C134.859 103.469 137.082 105.485 139.808 106.444C138.791 103.631 140.06 105.882 139.663 102.843C139.576 102.178 139.351 102.105 139.169 100.946C138.969 99.6694 138.606 100.424 139.366 99.5371C137.692 97.6952 135.24 97.0741 133.061 94.3978C132.255 93.4077 131.297 92.3055 130.655 91.1477C129.867 89.7267 129.503 88.1899 128.731 87.0077C128.377 90.4917 125.513 94.4836 130.533 99.9152C131.169 100.602 131.355 100.659 131.874 101.428C132.684 102.629 132.153 102.441 133.032 103.598Z" fill="#EE2F2F"/>
<path fill-rule="evenodd" clip-rule="evenodd" d="M152.229 84.5369C152.05 82.5934 152.676 84.292 150.76 83.2035C150.732 80.75 151.109 80.5739 150.663 78.9477C149.91 79.1577 137.051 85.3683 136.311 85.8863C136.774 87.1014 138.411 87.9425 139.506 88.6514C141.653 90.0417 141.991 90.0379 144.077 88.9602C146.288 87.818 150.634 85.7356 152.229 84.5369Z" fill="#AD9ACF"/>
<path fill-rule="evenodd" clip-rule="evenodd" d="M142.888 74.4388L133.105 78.8404C133.074 81.4741 133.808 82.9092 134.648 84.6558C137.389 84.2691 141.134 81.7329 143.739 80.6717C144.371 78.5084 144.984 80.7945 144.911 78.0973C144.883 77.0408 144.557 75.8441 144.515 74.0819L142.888 74.4388Z" fill="#B7A9CC"/>
<path fill-rule="evenodd" clip-rule="evenodd" d="M139.808 106.444C140.667 106.896 140.931 107.222 141.827 107.801C142.695 108.363 143.285 108.669 144.228 109.184C145.764 110.022 148.159 111.448 149.679 111.891C150.28 109.157 149.488 111.436 149.362 109.857C149.263 108.608 149.975 109.419 149.781 107.269C149.774 107.185 149.76 107.04 149.743 106.959C149.25 104.661 147.612 106.305 148.328 104.549C147.239 103.368 140.897 100.228 139.366 99.5371C138.606 100.424 138.969 99.6693 139.169 100.946C139.351 102.105 139.576 102.178 139.663 102.843C140.06 105.882 138.791 103.631 139.808 106.444Z" fill="#FB5858"/>
</svg>
