<svg width="487" height="468" viewBox="0 0 487 468" fill="none" xmlns="http://www.w3.org/2000/svg">
<path d="M48.792 411.249C48.792 403.495 97.9421 397.208 158.573 397.208C219.203 397.208 268.354 403.495 268.354 411.249C268.354 419.005 219.203 425.292 158.573 425.292C97.9421 425.292 48.792 419.005 48.792 411.249Z" fill="#FCBA5F"/>
<path d="M75.476 437.178C75.476 429.424 124.626 423.137 185.257 423.137C245.887 423.137 295.038 429.424 295.038 437.178C295.038 444.934 245.887 451.221 185.257 451.221C124.626 451.221 75.476 444.934 75.476 437.178Z" fill="#FCBA5F"/>
<path d="M225.135 453.315C225.135 445.204 272.936 438.629 331.9 438.629C390.863 438.629 456.295 444.365 456.295 452.475C456.295 460.585 390.863 468 331.9 468C272.936 468 225.135 461.425 225.135 453.315Z" fill="#FCBA5F"/>
<path d="M1.06183 380.478H79.2417C79.8283 380.478 80.3035 380.003 80.3035 379.417C80.3035 378.829 79.8283 378.355 79.2417 378.355H1.06183C0.475237 378.355 0 378.829 0 379.417C0 380.003 0.475237 380.478 1.06183 380.478Z" fill="#E7E0FF"/>
<path d="M257.866 380.478H286.316C286.903 380.478 287.378 380.003 287.378 379.417C287.378 378.829 286.903 378.355 286.316 378.355H257.866C257.279 378.355 256.804 378.829 256.804 379.417C256.804 380.003 257.279 380.478 257.866 380.478Z" fill="#E7E0FF"/>
<path d="M355.779 380.478H402.641C403.227 380.478 403.703 380.003 403.703 379.417C403.703 378.829 403.227 378.355 402.641 378.355H355.779C355.193 378.355 354.717 378.829 354.717 379.417C354.717 380.003 355.193 380.478 355.779 380.478Z" fill="#E7E0FF"/>
<path d="M415.348 380.478H485.356C485.942 380.478 486.417 380.003 486.417 379.417C486.417 378.829 485.942 378.355 485.356 378.355H415.348C414.762 378.355 414.287 378.829 414.287 379.417C414.287 380.003 414.762 380.478 415.348 380.478Z" fill="#E7E0FF"/>
<path d="M162.708 42.6414V46.883C162.708 47.4693 163.183 47.9449 163.77 47.9449C164.356 47.9449 164.832 47.4693 164.832 46.883V42.6414C164.832 42.0542 164.356 41.5796 163.77 41.5796C163.183 41.5796 162.708 42.0542 162.708 42.6414Z" fill="#E7E0FF"/>
<path d="M162.708 51.6666V55.9082C162.708 56.4945 163.183 56.97 163.77 56.97C164.356 56.97 164.832 56.4945 164.832 55.9082V51.6666C164.832 51.0794 164.356 50.6047 163.77 50.6047C163.183 50.6047 162.708 51.0794 162.708 51.6666Z" fill="#E7E0FF"/>
<path d="M157.135 50.3363H161.378C161.964 50.3363 162.44 49.8617 162.44 49.2745C162.44 48.6885 161.964 48.2126 161.378 48.2126H157.135C156.549 48.2126 156.073 48.6885 156.073 49.2745C156.073 49.8617 156.549 50.3363 157.135 50.3363Z" fill="#E7E0FF"/>
<path d="M166.16 50.3363H170.403C170.989 50.3363 171.465 49.8617 171.465 49.2745C171.465 48.6885 170.989 48.2126 170.403 48.2126H166.16C165.574 48.2126 165.098 48.6885 165.098 49.2745C165.098 49.8617 165.574 50.3363 166.16 50.3363Z" fill="#E7E0FF"/>
<path d="M342.896 13.1138V17.3557C342.896 17.9417 343.372 18.4175 343.958 18.4175C344.545 18.4175 345.02 17.9417 345.02 17.3557V13.1138C345.02 12.5266 344.545 12.0522 343.958 12.0522C343.372 12.0522 342.896 12.5266 342.896 13.1138Z" fill="#E7E0FF"/>
<path d="M342.896 22.1387V26.3806C342.896 26.9666 343.372 27.4424 343.958 27.4424C344.545 27.4424 345.02 26.9666 345.02 26.3806V22.1387C345.02 21.5518 344.545 21.0771 343.958 21.0771C343.372 21.0771 342.896 21.5518 342.896 22.1387Z" fill="#E7E0FF"/>
<path d="M337.325 20.8084H341.567C342.154 20.8084 342.629 20.3338 342.629 19.7466C342.629 19.1606 342.154 18.6851 341.567 18.6851H337.325C336.738 18.6851 336.263 19.1606 336.263 19.7466C336.263 20.3338 336.738 20.8084 337.325 20.8084Z" fill="#E7E0FF"/>
<path d="M346.35 20.8084H350.592C351.178 20.8084 351.654 20.3338 351.654 19.7466C351.654 19.1606 351.178 18.6851 350.592 18.6851H346.35C345.764 18.6851 345.288 19.1606 345.288 19.7466C345.288 20.3338 345.764 20.8084 346.35 20.8084Z" fill="#E7E0FF"/>
<path d="M24.8134 229.032V233.275C24.8134 233.861 25.2886 234.337 25.8752 234.337C26.4615 234.337 26.9367 233.861 26.9367 233.275V229.032C26.9367 228.446 26.4615 227.97 25.8752 227.97C25.2886 227.97 24.8134 228.446 24.8134 229.032Z" fill="#E7E0FF"/>
<path d="M24.8134 238.058V242.3C24.8134 242.887 25.2886 243.362 25.8752 243.362C26.4615 243.362 26.9367 242.887 26.9367 242.3V238.058C26.9367 237.471 26.4615 236.997 25.8752 236.997C25.2886 236.997 24.8134 237.471 24.8134 238.058Z" fill="#E7E0FF"/>
<path d="M19.2415 236.728H23.4837C24.07 236.728 24.5455 236.253 24.5455 235.667C24.5455 235.079 24.07 234.605 23.4837 234.605H19.2415C18.6552 234.605 18.18 235.079 18.18 235.667C18.18 236.253 18.6552 236.728 19.2415 236.728Z" fill="#E7E0FF"/>
<path d="M28.2668 236.728H32.5087C33.095 236.728 33.5706 236.253 33.5706 235.667C33.5706 235.079 33.095 234.605 32.5087 234.605H28.2668C27.6802 234.605 27.205 235.079 27.205 235.667C27.205 236.253 27.6802 236.728 28.2668 236.728Z" fill="#E7E0FF"/>
<path d="M452.841 316.218V320.461C452.841 321.047 453.316 321.523 453.903 321.523C454.489 321.523 454.965 321.047 454.965 320.461V316.218C454.965 315.632 454.489 315.156 453.903 315.156C453.316 315.156 452.841 315.632 452.841 316.218Z" fill="#E7E0FF"/>
<path d="M452.841 325.243V329.485C452.841 330.072 453.316 330.547 453.903 330.547C454.489 330.547 454.965 330.072 454.965 329.485V325.243C454.965 324.657 454.489 324.181 453.903 324.181C453.316 324.181 452.841 324.657 452.841 325.243Z" fill="#E7E0FF"/>
<path d="M447.269 323.914H451.512C452.098 323.914 452.574 323.438 452.574 322.852C452.574 322.266 452.098 321.791 451.512 321.791H447.269C446.683 321.791 446.207 322.266 446.207 322.852C446.207 323.438 446.683 323.914 447.269 323.914Z" fill="#E7E0FF"/>
<path d="M456.295 323.914H460.537C461.123 323.914 461.599 323.438 461.599 322.852C461.599 322.266 461.123 321.791 460.537 321.791H456.295C455.708 321.791 455.233 322.266 455.233 322.852C455.233 323.438 455.708 323.914 456.295 323.914Z" fill="#E7E0FF"/>
<path d="M399.313 131.943H400.375C400.376 125.186 403.111 119.079 407.539 114.65C411.967 110.223 418.076 107.488 424.833 107.487C432.652 107.487 439.606 111.152 444.087 116.861C447.347 121.018 449.29 126.249 449.29 131.943C449.288 138.7 446.553 144.809 442.126 149.237C437.697 153.665 431.59 156.401 424.833 156.401C418.076 156.401 411.967 153.665 407.539 149.237C403.111 144.809 400.376 138.7 400.375 131.943H399.313H398.252C398.253 146.624 410.152 158.524 424.833 158.525C439.513 158.524 451.412 146.624 451.413 131.943C451.413 125.762 449.299 120.064 445.758 115.551C440.896 109.349 433.325 105.363 424.833 105.363C410.152 105.364 398.253 117.264 398.252 131.943H399.313Z" fill="#EF558A"/>
<path d="M423.492 106.425V157.463C423.492 158.049 423.968 158.525 424.554 158.525C425.14 158.525 425.615 158.049 425.615 157.463V116.305V106.425C425.615 105.839 425.14 105.363 424.554 105.363C423.968 105.363 423.492 105.839 423.492 106.425Z" fill="#EF558A"/>
<path d="M399.313 133.005H450.351C450.937 133.005 451.413 132.53 451.413 131.944C451.413 131.357 450.937 130.882 450.351 130.882H399.313C398.727 130.882 398.252 131.357 398.252 131.944C398.252 132.53 398.727 133.005 399.313 133.005Z" fill="#EF558A"/>
<path d="M445.684 117.052L445.574 117.093C444.444 117.51 434.657 120.941 424.961 120.934C419.793 120.936 414.539 119.966 410.594 118.991C408.621 118.504 406.974 118.016 405.824 117.651C405.249 117.469 404.798 117.317 404.493 117.212C404.34 117.159 404.224 117.118 404.146 117.091L404.034 117.05C403.484 116.847 402.873 117.129 402.671 117.679C402.467 118.229 402.748 118.839 403.298 119.042C403.36 119.058 414.11 123.049 424.961 123.058C435.811 123.049 446.37 119.057 446.432 119.04C446.98 118.834 447.258 118.221 447.051 117.672C446.845 117.123 446.233 116.846 445.684 117.052Z" fill="#EF558A"/>
<path d="M446.403 143.935C446.34 143.918 435.782 139.926 424.93 139.917C414.08 139.926 403.329 143.917 403.268 143.933C402.718 144.136 402.437 144.746 402.64 145.296C402.843 145.846 403.454 146.128 404.004 145.925L404.116 145.884C405.27 145.466 415.233 142.032 424.93 142.041C430.098 142.039 435.302 143.009 439.196 143.984C441.145 144.471 442.766 144.958 443.897 145.322C444.463 145.504 444.906 145.655 445.205 145.761C445.356 145.813 445.469 145.855 445.545 145.882L445.655 145.923C446.204 146.129 446.816 145.852 447.023 145.303C447.229 144.754 446.952 144.141 446.403 143.935Z" fill="#EF558A"/>
<path d="M430.126 156.912C430.143 156.879 431.719 153.806 433.299 149.176C434.877 144.544 436.465 138.358 436.468 132.057C436.465 125.758 434.877 119.517 433.3 114.829C431.721 110.143 430.146 107.015 430.13 106.984C429.866 106.459 429.227 106.249 428.704 106.513C428.179 106.777 427.969 107.415 428.233 107.939L428.297 108.069C428.623 108.737 430.144 111.941 431.575 116.378C433.008 120.814 434.346 126.487 434.345 132.057C434.347 137.999 432.824 143.998 431.289 148.49C430.523 150.737 429.755 152.609 429.182 153.913C428.895 154.567 428.657 155.078 428.492 155.423C428.409 155.596 428.344 155.728 428.301 155.816L428.237 155.943C427.969 156.464 428.175 157.104 428.697 157.372C429.218 157.639 429.858 157.435 430.126 156.912Z" fill="#EF558A"/>
<path d="M438.788 154.011C438.807 153.977 440.346 151.251 441.889 147.139C443.431 143.024 444.986 137.528 444.988 131.912C444.985 126.295 443.431 120.75 441.891 116.588C440.348 112.427 438.81 109.651 438.792 109.618C438.508 109.105 437.862 108.919 437.349 109.204C436.836 109.488 436.65 110.135 436.935 110.648L436.996 110.76C437.312 111.347 438.789 114.178 440.179 118.095C441.571 122.011 442.868 127.016 442.865 131.912C442.868 137.133 441.392 142.426 439.901 146.392C439.157 148.376 438.412 150.028 437.855 151.181C437.576 151.756 437.345 152.207 437.184 152.512C437.105 152.665 437.042 152.781 437 152.857L436.939 152.968C436.65 153.478 436.831 154.126 437.342 154.414C437.852 154.703 438.5 154.522 438.788 154.011Z" fill="#EF558A"/>
<path d="M421.371 155.943L421.308 155.816C420.982 155.16 419.464 152.014 418.032 147.63C416.6 143.248 415.262 137.627 415.264 132.057C415.261 126.116 416.786 120.058 418.321 115.507C419.088 113.232 419.855 111.331 420.429 110.004C420.715 109.341 420.954 108.82 421.12 108.468C421.203 108.292 421.268 108.158 421.311 108.069L421.375 107.939C421.639 107.415 421.429 106.777 420.904 106.513C420.381 106.249 419.743 106.459 419.478 106.984C419.462 107.015 417.887 110.143 416.308 114.829C414.731 119.517 413.143 125.758 413.141 132.057C413.143 138.358 414.731 144.544 416.31 149.176C417.889 153.806 419.466 156.879 419.482 156.912C419.75 157.435 420.391 157.639 420.912 157.372C421.433 157.104 421.639 156.464 421.371 155.943Z" fill="#EF558A"/>
<path d="M412.669 152.968L412.609 152.857C412.294 152.282 410.817 149.502 409.429 145.633C408.037 141.766 406.74 136.807 406.743 131.912C406.74 126.689 408.217 121.343 409.709 117.326C410.453 115.317 411.199 113.639 411.756 112.468C412.035 111.881 412.267 111.423 412.427 111.112C412.508 110.957 412.571 110.839 412.612 110.76L412.674 110.648C412.958 110.135 412.772 109.488 412.259 109.204C411.747 108.919 411.101 109.105 410.817 109.618C410.798 109.651 409.26 112.427 407.717 116.588C406.178 120.75 404.623 126.295 404.62 131.912C404.623 137.528 406.178 143.024 407.719 147.139C409.262 151.251 410.801 153.977 410.821 154.011C411.108 154.522 411.756 154.703 412.267 154.414C412.778 154.126 412.958 153.478 412.669 152.968Z" fill="#EF558A"/>
<path d="M6.22416 158.144H7.28599C7.28629 151.199 10.098 144.92 14.6487 140.369C19.2009 135.818 25.4786 133.006 32.4233 133.005C39.3682 133.006 45.6459 135.818 50.1984 140.369C54.7491 144.92 57.5605 151.199 57.5611 158.144C57.5605 165.089 54.7491 171.366 50.1984 175.919C45.6459 180.47 39.3682 183.281 32.4233 183.282C25.4786 183.281 19.2009 180.47 14.6487 175.919C10.098 171.366 7.28629 165.089 7.28599 158.144H6.22416H5.16232C5.16292 173.2 17.3668 185.405 32.4233 185.406C47.4797 185.405 59.6836 173.2 59.6845 158.144C59.6836 143.088 47.4797 130.883 32.4233 130.882C17.3668 130.883 5.16292 143.088 5.16232 158.144H6.22416Z" fill="#E7E0FF"/>
<path d="M19.2415 149.449H20.3033C20.3066 147.558 21.8377 146.027 23.7284 146.023H41.1186C43.0093 146.027 44.5398 147.558 44.5434 149.449V166.838C44.5398 168.729 43.0093 170.261 41.1186 170.264H23.7284C21.8377 170.261 20.3066 168.729 20.3033 166.838V149.449H19.2415H18.18V166.838C18.1806 169.903 20.6633 172.386 23.7284 172.387H41.1186C44.1834 172.386 46.6662 169.903 46.6671 166.838V149.449C46.6662 146.383 44.1834 143.9 41.1186 143.899H23.7284C20.6633 143.9 18.1806 146.383 18.18 149.449H19.2415Z" fill="#EF558A"/>
<path d="M27.0196 158.144H28.0814C28.0817 156.941 28.5654 155.862 29.3527 155.073C30.1422 154.286 31.2209 153.802 32.4233 153.801C33.626 153.802 34.7049 154.286 35.4941 155.073C36.2814 155.862 36.7654 156.941 36.7657 158.144C36.7654 159.346 36.2814 160.424 35.4941 161.214C34.7049 162.001 33.626 162.485 32.4233 162.485C31.2209 162.485 30.1422 162.001 29.3527 161.214C28.5654 160.424 28.0817 159.346 28.0814 158.144H27.0196H25.9578C25.9581 161.716 28.8522 164.609 32.4233 164.609C35.9946 164.609 38.8885 161.716 38.8894 158.144C38.8885 154.572 35.9946 151.678 32.4233 151.677C28.8522 151.678 25.9581 154.572 25.9578 158.144H27.0196Z" fill="#EF558A"/>
<path d="M38.003 150.789C38.003 149.711 38.8764 148.837 39.9539 148.837C41.0314 148.837 41.9054 149.711 41.9054 150.789C41.9054 151.865 41.0314 152.739 39.9539 152.739C38.8764 152.739 38.003 151.865 38.003 150.789Z" fill="#EF558A"/>
<path d="M235.887 26.0462H236.949C236.948 25.5258 237.125 25.0735 237.363 24.7848C237.607 24.4929 237.863 24.3758 238.116 24.3749H261.135C261.388 24.3758 261.644 24.4929 261.888 24.7848C262.126 25.0735 262.303 25.5258 262.302 26.0462V42.957C262.303 43.4771 262.126 43.9282 261.888 44.2184C261.644 44.5103 261.388 44.6259 261.135 44.6271H238.116C237.863 44.6259 237.607 44.5103 237.363 44.2184C237.125 43.9282 236.948 43.4771 236.949 42.957V26.0462H235.887H234.826V42.957C234.827 43.9454 235.148 44.8594 235.717 45.5604C236.28 46.2568 237.138 46.7516 238.116 46.7504H261.135C262.113 46.7516 262.971 46.2568 263.534 45.5604C264.103 44.8594 264.424 43.9454 264.425 42.957V26.0462C264.424 25.0575 264.103 24.1422 263.534 23.4428C262.971 22.746 262.113 22.2503 261.135 22.2512H238.116C237.138 22.2503 236.28 22.746 235.717 23.4428C235.148 24.1422 234.827 25.0575 234.826 26.0462H235.887Z" fill="#E7E0FF"/>
<path d="M245.09 28.2207H244.028V40.7824C244.028 41.1583 244.224 41.5032 244.548 41.6955C244.871 41.8875 245.268 41.8939 245.598 41.7145L251.771 38.3433L257.102 35.4332C257.444 35.2463 257.656 34.8905 257.656 34.502C257.656 34.1113 257.444 33.7564 257.102 33.5695L245.598 27.2882C245.268 27.1077 244.871 27.1152 244.547 27.3063C244.224 27.4986 244.028 27.8447 244.028 28.2207H245.09L244.581 29.1516L254.378 34.5008L250.753 36.48L246.151 38.9931V28.2207H245.09Z" fill="#E7E0FF"/>
<path d="M224.057 34.5019H225.119C225.12 27.7309 227.86 21.6109 232.296 17.1728C236.735 12.7355 242.855 9.99519 249.626 9.99519C256.395 9.99519 262.515 12.7355 266.953 17.1728C271.391 21.6109 274.131 27.7309 274.132 34.5019C274.131 41.2717 271.391 47.3917 266.953 51.8298C262.515 56.2659 256.395 59.0075 249.626 59.0075C242.855 59.0075 236.735 56.2659 232.296 51.8298C227.86 47.3917 225.12 41.2717 225.119 34.5019H224.057H222.995C222.996 49.2084 234.917 61.1299 249.626 61.1311C264.333 61.1299 276.254 49.2084 276.256 34.5019C276.254 19.7934 264.333 7.87183 249.626 7.87183C234.917 7.87183 222.996 19.7934 222.995 34.5019H224.057Z" fill="#EF558A"/>
<path d="M77.9063 29.3259H78.9681C78.9684 21.8106 82.0109 15.0165 86.9355 10.091C91.8618 5.16651 98.656 2.12337 106.171 2.12337C113.687 2.12337 120.48 5.16651 125.406 10.091C130.331 15.0165 133.374 21.8106 133.374 29.3259C133.374 36.8412 130.331 43.6354 125.406 48.5608C120.48 53.4865 113.687 56.5285 106.171 56.5294C98.656 56.5285 91.8618 53.4865 86.9355 48.562C82.0109 43.6354 78.9684 36.8412 78.9681 29.3259H77.9063H76.8444C76.8453 45.5231 89.9738 58.6518 106.171 58.653C122.368 58.6518 135.496 45.5231 135.497 29.3259C135.496 13.1297 122.368 0.000902919 106.171 0C89.9738 0.000902919 76.8453 13.1297 76.8444 29.3259H77.9063Z" fill="#FCBA5F"/>
<path d="M91.5284 24.8995H90.4665V43.1704C90.4665 43.7308 90.9026 44.1949 91.4621 44.2298C91.4745 44.2298 97.7513 44.6238 104.585 44.625C108.354 44.6238 112.288 44.5061 115.47 44.1269C117.064 43.9357 118.467 43.6841 119.606 43.3253C120.177 43.1435 120.684 42.9368 121.128 42.6713C121.569 42.4038 121.969 42.0733 122.24 41.5851C122.752 40.6316 123.078 39.3438 123.324 37.8254C123.563 36.3124 123.695 34.5932 123.695 32.8945C123.693 30.9409 123.526 29.0255 123.113 27.4571C122.904 26.6725 122.637 25.9697 122.247 25.3708C122.05 25.0725 121.82 24.7986 121.535 24.5693C121.253 24.34 120.911 24.1573 120.532 24.0679C116.777 23.1857 113.524 23.0085 111.49 23.0085C110.105 23.0085 109.285 23.0912 109.255 23.0933L109.363 24.1497L110.424 24.1061C110.42 24.0679 110.295 20.9847 109.534 17.8164C109.148 16.2299 108.613 14.6203 107.78 13.3102C107.36 12.6571 106.861 12.0723 106.23 11.6326C105.604 11.1932 104.831 10.916 104 10.919C103.763 10.919 103.522 10.9403 103.28 10.9828C102.867 11.0592 102.59 11.2768 102.397 11.4764C102.039 11.8631 101.846 12.2803 101.644 12.776C101.307 13.6362 101.028 14.735 100.776 15.938C100.028 19.5343 99.5686 24.0233 99.5658 24.0414L100.622 24.1497L100.535 23.0921L91.4414 23.8406C90.8921 23.8855 90.4665 24.3484 90.4665 24.8995H91.5284L91.6153 25.9568L100.71 25.2083C101.217 25.167 101.626 24.7655 101.678 24.259C101.678 24.2581 101.696 24.0796 101.733 23.76C101.858 22.6389 102.199 19.8136 102.676 17.2728C102.914 16.006 103.19 14.8042 103.472 13.9642C103.609 13.5471 103.754 13.2178 103.855 13.0544L103.914 12.965L103.93 12.9469L103.704 12.7272L103.866 12.9948L103.93 12.9469L103.704 12.7272L103.866 12.9948L103.537 12.4533L103.645 13.0745C103.745 13.0574 103.821 13.0213 103.866 12.9948L103.537 12.4533L103.645 13.0745C103.772 13.0532 103.89 13.0426 104 13.0426C104.383 13.0459 104.687 13.1498 105.018 13.3761C105.592 13.7635 106.183 14.6152 106.643 15.7192C107.344 17.3703 107.776 19.5172 108.011 21.2258C108.13 22.0815 108.203 22.83 108.246 23.3609C108.267 23.6264 108.282 23.8376 108.291 23.9809C108.299 24.1242 108.301 24.1943 108.301 24.1943C108.314 24.4862 108.447 24.7613 108.668 24.9536C108.888 25.1436 109.18 25.236 109.47 25.2062L109.496 25.2041C109.636 25.1914 110.353 25.1318 111.49 25.1318C113.4 25.1309 116.496 25.3007 120.046 26.1353L120.201 26.2201C120.328 26.3189 120.525 26.5696 120.704 26.9666C120.976 27.5601 121.207 28.4522 121.352 29.4851C121.5 30.5192 121.571 31.6967 121.571 32.8945C121.571 34.4828 121.447 36.1083 121.227 37.4931C121.014 38.8713 120.677 40.0306 120.376 40.569C120.372 40.5826 120.279 40.7069 120.036 40.8502C119.615 41.1072 118.809 41.3907 117.771 41.6095C114.639 42.2879 109.463 42.5046 104.585 42.5013C101.208 42.5013 97.9565 42.4026 95.5521 42.306C94.3497 42.256 93.3586 42.2072 92.6693 42.1711C91.9798 42.1341 91.5961 42.1106 91.5949 42.1106L91.5284 43.1704H92.5902V24.8995H91.5284Z" fill="#EF558A"/>
<path d="M95.5452 24.4693V43.4026C95.5452 43.9889 96.0207 44.4645 96.607 44.4645C97.1936 44.4645 97.6688 43.9889 97.6688 43.4026V24.4693C97.6688 23.8821 97.1936 23.4075 96.607 23.4075C96.0207 23.4075 95.5452 23.8821 95.5452 24.4693Z" fill="#EF558A"/>
<path d="M114.034 31.7034L122.263 31.8521C122.849 31.8626 123.333 31.3964 123.343 30.8092C123.354 30.2232 122.887 29.739 122.301 29.7296L114.073 29.5798C113.486 29.5692 113.003 30.0363 112.992 30.6223C112.981 31.2086 113.448 31.6926 114.034 31.7034Z" fill="#EF558A"/>
<path d="M114.034 37.6597L122.263 37.8084C122.849 37.8192 123.333 37.3518 123.343 36.7658C123.354 36.1798 122.887 35.6955 122.301 35.685L114.073 35.5363C113.486 35.5258 113.003 35.9929 112.992 36.5789C112.981 37.1652 113.448 37.6491 114.034 37.6597Z" fill="#EF558A"/>
<path d="M422.79 26.3805H423.852C423.852 19.9111 426.471 14.0628 430.711 9.82213C434.952 5.58263 440.8 2.96325 447.269 2.96325C453.74 2.96325 459.588 5.58263 463.828 9.82213C468.068 14.0628 470.686 19.9111 470.687 26.3805C470.686 32.8508 468.068 38.699 463.828 42.9397C459.588 47.1795 453.74 49.7977 447.269 49.7989C440.8 49.7977 434.952 47.1795 430.711 42.9397C426.471 38.699 423.852 32.8508 423.852 26.3805H422.79H421.728C421.728 40.4871 433.164 51.9214 447.269 51.9223C461.377 51.9214 472.81 40.4871 472.811 26.3805C472.81 12.2748 461.377 0.8396 447.269 0.8396C433.164 0.8396 421.728 12.2739 421.728 26.3805H422.79Z" fill="#FCBA5F"/>
<path d="M454.403 17.0657C450.328 17.1812 446.968 24.8209 446.968 24.8209C446.968 24.8209 444.241 16.3403 439.468 17.2577C438.811 17.3832 438.01 17.6484 437.425 18.4065C431.75 25.7551 446.968 38.99 446.968 38.99C446.968 38.99 462.984 24.3366 456.764 17.9277C456.041 17.1812 455.098 17.0464 454.403 17.0657Z" fill="#EF558A"/>
<path d="M289.52 164.12H290.582C290.582 158.862 292.71 154.112 296.154 150.666C299.601 147.22 304.351 145.093 309.609 145.093C314.867 145.093 319.617 147.22 323.064 150.666C326.508 154.112 328.636 158.862 328.637 164.12C328.636 169.378 326.508 174.128 323.064 177.574C319.617 181.02 314.867 183.146 309.609 183.147C304.351 183.146 299.601 181.02 296.154 177.574C292.71 174.128 290.582 169.378 290.582 164.12H289.52H288.459C288.459 175.802 297.927 185.27 309.609 185.271C321.291 185.27 330.759 175.802 330.76 164.12C330.759 152.438 321.291 142.97 309.609 142.969C297.927 142.97 288.459 152.438 288.459 164.12H289.52Z" fill="#E7E0FF"/>
<path d="M307.496 176.793C305.852 175.818 305.311 173.694 306.287 172.051C307.263 170.406 309.386 169.866 311.029 170.84C312.673 171.816 313.215 173.94 312.239 175.583C311.264 177.227 309.141 177.768 307.496 176.793Z" fill="#E7E0FF"/>
<path d="M299.364 161.914C297.721 160.938 297.179 158.815 298.156 157.171C299.13 155.527 301.254 154.986 302.898 155.961C304.54 156.937 305.083 159.061 304.107 160.704C303.131 162.348 301.007 162.89 299.364 161.914Z" fill="#E7E0FF"/>
<path d="M316.322 161.928C314.678 160.953 314.136 158.83 315.111 157.185C316.087 155.541 318.21 155 319.854 155.975C321.497 156.951 322.039 159.075 321.063 160.718C320.088 162.362 317.964 162.904 316.322 161.928Z" fill="#E7E0FF"/>
<path d="M301.503 161.16L308.32 174.305C308.591 174.826 309.231 175.029 309.751 174.759C310.273 174.488 310.475 173.848 310.206 173.328L303.389 160.182C303.119 159.662 302.478 159.458 301.958 159.729C301.437 159.998 301.234 160.639 301.503 161.16Z" fill="#E7E0FF"/>
<path d="M302.87 160.065L317.674 159.755C318.26 159.742 318.725 159.256 318.712 158.67C318.701 158.084 318.216 157.619 317.63 157.631L302.825 157.942C302.239 157.955 301.773 158.44 301.786 159.026C301.799 159.612 302.284 160.077 302.87 160.065Z" fill="#E7E0FF"/>
<path d="M306.453 104.197L339.587 111.393L333.318 123.535L305.833 105.631L306.453 104.197ZM312.645 57.5911L319.31 66.0024L299.068 83.2114L297.296 81.0029L312.645 57.5911Z" fill="#FCBA5F"/>
<path d="M401.97 53.1105L379.201 55.4716L380.228 60.6565L393.934 59.1688L352.519 87.2408L349.159 71.5532L311.38 89.152L312.762 92.2406L344.098 80.2883L346.617 99.9088L398.149 63.6909L394.829 76.1123L399.986 77.1444L405.047 56.2361C405.425 54.3929 403.817 52.7463 401.97 53.1105Z" fill="#EF558A"/>
<path d="M408.236 362.209V447.241C408.236 447.828 408.711 448.303 409.298 448.303C409.884 448.303 410.36 447.828 410.36 447.241V391.085V362.209C410.36 361.622 409.884 361.147 409.298 361.147C408.711 361.147 408.236 361.622 408.236 362.209Z" fill="#E7E0FF"/>
<path d="M349.53 362.209V396.625C349.53 397.212 350.005 397.688 350.592 397.688C351.178 397.688 351.654 397.212 351.654 396.625V373.896V362.209C351.654 361.622 351.178 361.147 350.592 361.147C350.005 361.147 349.53 361.622 349.53 362.209Z" fill="#E7E0FF"/>
<path d="M392.453 222.415C401.352 222.6 406.037 226.567 409.667 234.775C418.594 254.97 419.566 297.382 419.566 345.881V345.923V352.145C419.566 355.039 417.346 357.399 414.617 357.399H333.501C330.772 357.399 328.551 355.039 328.551 352.145V345.881C328.551 342.987 330.772 340.627 333.501 340.627H365.342C365.331 294.063 365.37 253.349 374.058 234.061C377.642 226.105 383.555 222.233 392.453 222.415Z" fill="#E7E0FF"/>
<path d="M408.236 285.663V344.06C408.236 344.646 408.711 345.122 409.298 345.122C409.884 345.122 410.36 344.646 410.36 344.06V285.663C410.36 285.077 409.884 284.601 409.298 284.601C408.711 284.601 408.236 285.077 408.236 285.663Z" fill="#FEFEFE"/>
<path d="M332.128 302.091C332.128 302.091 285.037 315.992 276.946 328.854C268.855 341.717 258.482 425.735 258.482 425.735H310.553L350.592 301.885L332.128 302.091Z" fill="#E7E0FF"/>
<path d="M344.475 304.484C344.475 304.484 294.727 318.414 290.25 334.83C285.773 351.247 309.949 438.194 309.949 438.194H368.568L339.125 351.452C339.125 351.452 386.636 348.56 393.477 336.323C403.82 317.821 386.263 294.535 386.263 294.535L344.475 304.484Z" fill="#EF558A"/>
<path d="M368.58 438.177H368.562L367.904 436.237V436.18L368.58 438.177ZM361.539 417.487L359.373 411.103V411.059L361.539 417.424V417.487ZM353.007 392.353L351.654 388.363V388.326L353.007 392.304V392.353Z" fill="#FEFEFE"/>
<path d="M351.654 388.363L350.84 385.969V385.939L351.654 388.326V388.363Z" fill="#5B696D"/>
<path d="M344.476 367.218L342.309 360.835V360.818L344.476 367.183V367.218ZM350.84 302.968V302.961L352.924 302.472L350.84 302.968ZM359.373 300.937V300.93L361.476 300.436L359.373 300.937Z" fill="#FEFEFE"/>
<path d="M367.904 298.907V298.898L369.996 298.408L367.904 298.907ZM376.435 296.874V296.867L378.556 296.37L376.435 296.874ZM384.967 294.843V294.836L386.253 294.531C386.253 294.531 386.254 294.533 386.256 294.536L384.967 294.843Z" fill="#5B696D"/>
<path d="M368.562 438.177H367.904V436.237L368.562 438.177ZM361.539 438.177H359.373V411.103L361.539 417.486V438.177ZM353.007 438.177H350.84V385.969L351.654 388.363L353.007 392.352V438.177ZM344.476 438.177H342.309V360.835L344.476 367.218V438.177ZM335.978 438.177H333.812V307.972C334.455 307.752 335.38 307.358 335.978 307.158V438.177ZM327.447 438.177H325.281V311.154C326.047 310.859 326.703 310.617 327.447 310.342V438.177ZM318.915 438.177H316.749V314.574C317.478 314.251 318.189 313.868 318.915 313.557V438.177ZM310.384 438.177H309.944C309.944 438.177 308.794 433.84 308.218 431.711V318.703C308.947 318.315 309.637 317.93 310.384 317.553V438.177ZM301.853 406.522C301.104 403.485 300.452 400.982 299.686 397.755V323.951C300.4 323.438 301.087 322.925 301.853 322.428V406.522ZM293.321 368.266C292.481 363.805 291.73 359.558 291.154 355.606V332.753C291.706 331.658 292.423 330.6 293.321 329.536V368.266ZM342.309 351.17V305.161C342.753 305.033 344.476 304.484 344.476 304.484V350.968C343.458 351.056 342.964 351.121 342.309 351.17ZM350.84 350.223V302.969L352.924 302.473L353.007 302.452V349.918C352.303 350.005 351.508 350.145 350.84 350.223ZM359.373 349.072V300.937L361.476 300.436L361.539 300.421V348.766C360.741 348.897 360.154 348.952 359.373 349.072ZM367.904 347.616V298.906L369.996 298.407L370.07 298.39V347.176C369.349 347.332 368.628 347.468 367.904 347.616ZM376.435 345.551V296.874L378.556 296.37L378.601 296.359V344.907C377.886 345.129 377.176 345.342 376.435 345.551ZM384.967 342.469V294.843L386.256 294.536C386.308 294.614 386.92 295.551 387.134 295.851V341.453C386.461 341.812 385.712 342.135 384.967 342.469ZM393.464 336.307V307.87C394.3 309.986 395.059 312.253 395.631 314.641V330.959C395.113 332.771 394.443 334.557 393.464 336.307Z" fill="#F172A1"/>
<path d="M412.632 239.72C412.632 239.72 414.493 205.492 427.191 196.692C434.443 191.667 450.523 191.203 456.528 205.27C462.533 219.337 453.578 278.468 433.162 287.733C412.747 296.997 396.738 281.965 396.738 281.965C396.738 281.965 390.086 307.034 354.645 311.041C335.269 313.231 325.313 303.289 325.313 303.289C325.313 303.289 312.547 317.355 299.038 316.145C283.784 314.778 273.262 306.682 279.2 281.965C284.841 258.49 300.918 241.028 318.904 231.273C334.646 222.735 348.546 220.351 369.344 222.41C390.141 224.469 412.632 239.72 412.632 239.72Z" fill="#FCBA5F"/>
<path d="M349.565 230.532C349.565 229.129 350.703 227.993 352.104 227.993C353.508 227.993 354.645 229.129 354.645 230.532C354.645 231.935 353.508 233.072 352.104 233.072C350.703 233.072 349.565 231.935 349.565 230.532Z" fill="#E7E0FF"/>
<path d="M348.83 239.761C348.83 238.357 349.967 237.221 351.369 237.221C352.773 237.221 353.909 238.357 353.909 239.761C353.909 241.163 352.773 242.3 351.369 242.3C349.967 242.3 348.83 241.163 348.83 239.761Z" fill="#E7E0FF"/>
<path d="M379.21 261.466C379.21 257.695 376.28 254.637 372.667 254.637H314.687C311.073 254.637 308.144 257.695 308.144 261.466V294.228C308.144 298 311.073 301.057 314.687 301.057H372.667C376.28 301.057 379.21 298 379.21 294.228V261.466Z" fill="#FEFEFE"/>
<path d="M372.508 292.825H331.467C330.881 292.825 330.406 293.301 330.406 293.887C330.406 294.474 330.881 294.949 331.467 294.949H372.508C373.094 294.949 373.57 294.474 373.57 293.887C373.57 293.301 373.094 292.825 372.508 292.825Z" fill="#FCBA5F"/>
<path d="M347.222 269.718H348.284C348.284 268.418 347.778 267.228 346.951 266.362C346.126 265.497 344.96 264.947 343.677 264.948C342.393 264.947 341.227 265.497 340.402 266.362C339.575 267.228 339.07 268.418 339.07 269.718C339.07 271.019 339.575 272.209 340.403 273.075C341.227 273.94 342.394 274.489 343.677 274.488C344.959 274.489 346.126 273.94 346.951 273.075C347.778 272.209 348.284 271.019 348.284 269.718H347.222H346.16C346.159 270.466 345.871 271.129 345.416 271.607C344.957 272.083 344.351 272.364 343.677 272.364C343.002 272.364 342.396 272.083 341.938 271.607C341.482 271.129 341.194 270.466 341.193 269.718C341.194 268.971 341.482 268.307 341.938 267.83C342.396 267.353 343.002 267.073 343.677 267.071C344.351 267.073 344.957 267.353 345.416 267.83C345.871 268.307 346.159 268.971 346.16 269.718H347.222Z" fill="#FCBA5F"/>
<path d="M300.067 285.891C300.067 285.891 300.129 285.648 300.247 285.211C300.659 283.686 301.75 279.841 303.101 276.429C303.775 274.725 304.519 273.126 305.235 272.02C305.591 271.468 305.942 271.043 306.223 270.8C306.363 270.678 306.483 270.602 306.565 270.565L306.703 270.523L306.721 270.525C307.189 270.626 307.494 270.777 307.712 270.943C308.031 271.191 308.216 271.498 308.352 271.97C308.484 272.438 308.527 273.046 308.526 273.704C308.526 274.029 308.516 274.367 308.509 274.709C308.484 275.939 308.193 277.41 307.891 278.896C307.593 280.387 307.281 281.889 307.277 283.304C307.278 284.125 307.384 284.933 307.726 285.685C308.063 286.437 308.675 287.102 309.498 287.507C309.924 287.722 310.381 287.799 310.824 287.799C311.418 287.797 312.006 287.667 312.616 287.471C314.727 286.778 317.222 285.22 319.703 283.85C320.936 283.165 322.154 282.529 323.255 282.076C324.354 281.62 325.341 281.363 326.043 281.368C326.359 281.368 326.614 281.415 326.818 281.494C327.022 281.576 327.183 281.684 327.343 281.861C327.477 282.021 327.508 282.112 327.517 282.32C327.52 282.553 327.417 282.946 327.154 283.422C326.701 284.259 325.802 285.307 324.713 286.341C323.077 287.9 321.025 289.461 319.391 290.618C318.573 291.198 317.859 291.678 317.351 292.012C317.097 292.179 316.896 292.31 316.757 292.399C316.619 292.487 316.549 292.531 316.549 292.531C316.062 292.835 315.904 293.469 316.193 293.965C316.481 294.461 317.108 294.638 317.614 294.367C317.625 294.361 318.769 293.745 320.256 292.843C321.745 291.937 323.571 290.753 324.984 289.565C327.886 287.122 328.654 286.438 328.667 286.426L327.96 285.633L327.324 286.484L327.594 286.124L327.32 286.48L327.324 286.484L327.594 286.124L327.32 286.48C327.328 286.485 327.777 286.836 328.195 287.419C328.617 288.006 328.994 288.792 328.992 289.721C328.99 290.295 328.857 290.945 328.452 291.709C328.047 292.472 327.363 293.347 326.26 294.304C323.705 296.523 321.898 297.703 320.703 298.314C319.509 298.926 318.936 298.963 318.839 298.963H318.822L318.783 299.512L318.94 298.988L318.822 298.963L318.783 299.512L318.94 298.988L318.636 300.005L318.774 301.058C318.912 301.041 321.795 300.633 325.299 297.857C329.622 294.434 330.614 292.451 330.703 292.261L329.741 291.811L328.805 292.31L328.837 292.292L328.803 292.31H328.805L328.837 292.292L328.803 292.31C328.848 292.391 329.496 293.723 329.493 295.568C329.491 296.607 329.296 297.809 328.682 299.097C328.068 300.385 327.03 301.771 325.29 303.155C320.351 307.075 315.518 308.224 311.42 308.23C308.302 308.231 305.616 307.548 303.717 306.866C302.768 306.524 302.016 306.185 301.508 305.933C301.254 305.807 301.061 305.704 300.934 305.632L300.794 305.554L300.763 305.535L300.759 305.533C300.258 305.227 299.605 305.384 299.299 305.884C298.993 306.385 299.15 307.038 299.652 307.344C299.745 307.396 304.561 310.346 311.42 310.353C315.918 310.36 321.299 309.048 326.612 304.818C328.573 303.26 329.838 301.611 330.599 300.011C331.362 298.414 331.617 296.877 331.616 295.568C331.612 293.078 330.725 291.406 330.679 291.312C330.49 290.957 330.117 290.739 329.713 290.75C329.311 290.76 328.95 290.996 328.779 291.361L329.135 291.527L328.785 291.349L328.779 291.361L329.135 291.527L328.785 291.349C328.763 291.395 327.86 293.122 323.98 296.192C322.412 297.435 321.009 298.127 320.013 298.509C319.515 298.7 319.119 298.814 318.856 298.877C318.724 298.909 318.626 298.929 318.565 298.941L318.502 298.952L318.493 298.953L318.555 299.389L318.498 298.953H318.493L318.555 299.389L318.498 298.953C318.002 299.018 317.618 299.422 317.577 299.921C317.538 300.419 317.853 300.88 318.332 301.023C318.435 301.054 318.604 301.086 318.839 301.086C319.385 301.085 320.27 300.92 321.672 300.204C323.074 299.485 325.005 298.205 327.651 295.908C328.908 294.817 329.772 293.749 330.327 292.707C330.883 291.665 331.117 290.647 331.116 289.721C331.114 288.157 330.471 286.922 329.861 286.099C329.246 285.273 328.651 284.825 328.596 284.784C328.193 284.482 327.63 284.505 327.254 284.841C327.254 284.841 327.213 284.878 327.098 284.978C326.755 285.276 325.786 286.113 323.616 287.94C322.362 288.999 320.593 290.155 319.154 291.027C318.434 291.464 317.794 291.834 317.336 292.092C317.108 292.221 316.924 292.323 316.798 292.392C316.673 292.461 316.608 292.496 316.608 292.496L317.11 293.432L317.673 294.332C317.693 294.319 320.582 292.515 323.506 290.186C324.969 289.019 326.441 287.726 327.585 286.421C328.157 285.768 328.65 285.112 329.017 284.441C329.381 283.77 329.636 283.074 329.64 282.32C329.648 281.664 329.405 280.968 328.927 280.445C328.552 280.024 328.088 279.709 327.59 279.516C327.092 279.322 326.568 279.244 326.043 279.244C324.709 279.252 323.341 279.714 321.915 280.34C319.785 281.287 317.534 282.657 315.509 283.773C314.499 284.33 313.549 284.823 312.729 285.164C311.914 285.508 311.221 285.682 310.824 285.675C310.624 285.675 310.51 285.641 310.45 285.61C310.034 285.393 309.828 285.158 309.657 284.802C309.492 284.445 309.4 283.937 309.401 283.304C309.398 282.214 309.671 280.8 309.973 279.317C310.271 277.828 310.596 276.265 310.633 274.755C310.64 274.422 310.649 274.068 310.649 273.704C310.644 272.723 310.594 271.651 310.11 270.627C309.867 270.12 309.5 269.634 308.999 269.254C308.499 268.872 307.881 268.601 307.166 268.449H307.167C307.013 268.416 306.857 268.4 306.703 268.4C306.277 268.4 305.88 268.523 305.538 268.704C304.896 269.048 304.396 269.573 303.917 270.2C303.089 271.301 302.344 272.768 301.649 274.381C299.576 279.205 298.018 285.34 298.009 285.366C297.865 285.936 298.208 286.513 298.776 286.658C299.344 286.803 299.922 286.46 300.067 285.891Z" fill="#E7E0FF"/>
<path d="M433.186 196.548L433.18 196.525C433.118 196.251 432.554 193.64 432.555 190.613C432.555 189.047 432.707 187.371 433.132 185.867C433.556 184.359 434.244 183.042 435.278 182.096C436.317 181.145 437.544 180.533 438.847 180.156C440.148 179.78 441.518 179.644 442.787 179.644C444.188 179.644 445.463 179.808 446.378 179.973C446.837 180.056 447.204 180.137 447.455 180.198C447.58 180.229 447.676 180.253 447.738 180.27L447.806 180.289L447.822 180.293C448.367 180.453 448.937 180.16 449.124 179.623C449.129 179.602 450.503 175.666 451.231 172.298C451.581 170.664 451.923 169.12 452.356 168.077C452.568 167.555 452.804 167.17 453.007 166.961C453.218 166.75 453.335 166.703 453.519 166.683L453.501 166.436V166.683H453.519L453.501 166.436V166.683V166.493L453.443 166.675L453.501 166.683V166.493L453.443 166.675L453.446 166.662L453.441 166.674L453.443 166.675L453.446 166.662L453.441 166.674C453.464 166.674 453.688 166.85 453.905 167.217C454.242 167.758 454.585 168.655 454.822 169.673C455.062 170.69 455.206 171.834 455.205 172.902C455.206 173.795 455.104 174.636 454.904 175.296C454.362 177.096 453.889 178.523 453.553 179.497C453.384 179.984 453.25 180.358 453.159 180.61C453.113 180.735 453.077 180.83 453.054 180.892L453.02 180.984C452.811 181.525 453.079 182.135 453.617 182.349C454.156 182.565 454.769 182.305 454.991 181.77C454.995 181.763 455.414 180.752 455.896 179.474C456.379 178.189 456.921 176.661 457.188 175.522C457.96 172.201 458.105 170.219 458.204 168.81C458.254 168.106 458.294 167.564 458.387 167.065C458.479 166.564 458.617 166.092 458.894 165.477C459.038 165.158 459.2 164.967 459.324 164.871C459.453 164.775 459.529 164.757 459.627 164.753C459.709 164.753 459.822 164.775 459.986 164.866C460.228 165 460.564 165.306 460.896 165.844C461.228 166.378 461.555 167.134 461.812 168.118C462.115 169.275 462.265 170.351 462.266 171.47C462.265 173.265 461.871 175.198 460.978 177.703C459.753 181.139 459.011 183.408 459.009 183.415C458.886 183.791 458.983 184.207 459.262 184.49C459.54 184.772 459.954 184.876 460.333 184.758C460.411 184.734 461.368 184.428 462.64 183.552C463.91 182.677 465.494 181.225 466.783 178.935C467.775 177.165 468.112 175.199 468.449 173.763C468.609 173.048 468.78 172.464 468.931 172.186L469.023 172.037L469.054 172.001L469.024 171.967L469.048 172.005L469.054 172.001L469.024 171.967L469.048 172.005L468.968 171.88V172.032L469.048 172.005L468.968 171.88V172.032C469.062 172.034 469.199 172.067 469.376 172.187C469.641 172.363 469.978 172.747 470.239 173.378C470.502 174.008 470.687 174.877 470.687 175.98C470.687 177.076 470.505 178.404 470.042 179.952C469.174 182.859 468.004 185.166 466.546 186.946C465.086 188.725 463.341 189.992 461.234 190.828C459.06 191.692 456.179 192.46 453.461 193.517C450.748 194.583 448.137 195.924 446.542 198.191C446.207 198.673 446.325 199.334 446.807 199.669C447.288 200.004 447.95 199.885 448.285 199.404C449.424 197.744 451.654 196.491 454.232 195.496C456.804 194.491 459.663 193.732 462.017 192.803C464.441 191.844 466.513 190.339 468.189 188.292C469.866 186.245 471.148 183.67 472.077 180.559C472.59 178.84 472.811 177.312 472.811 175.98C472.81 174.194 472.416 172.757 471.759 171.702C471.428 171.175 471.03 170.743 470.568 170.428C470.108 170.116 469.575 169.922 469.018 169.909L468.968 169.908C468.53 169.903 468.074 170.065 467.753 170.323C467.466 170.548 467.267 170.816 467.112 171.088C466.844 171.566 466.686 172.077 466.54 172.629C466.326 173.454 466.153 174.375 465.913 175.295C465.675 176.213 465.369 177.122 464.934 177.893C463.82 179.868 462.484 181.079 461.434 181.804C460.91 182.165 460.458 182.403 460.146 182.548C459.991 182.62 459.87 182.669 459.794 182.698L459.712 182.727L459.698 182.732L459.81 183.071L459.703 182.73L459.698 182.732L459.81 183.071L459.703 182.73L460.017 183.744L461.027 184.074C461.027 184.072 461.21 183.516 461.546 182.527C461.882 181.539 462.37 180.122 462.979 178.416C463.92 175.779 464.39 173.586 464.39 171.47C464.39 170.156 464.207 168.883 463.867 167.581C463.463 166.049 462.9 164.875 462.202 164.026C461.85 163.604 461.462 163.26 461.029 163.016C460.6 162.772 460.117 162.629 459.627 162.63C459.042 162.627 458.468 162.84 458.016 163.198C457.561 163.555 457.214 164.039 456.959 164.604C456.619 165.354 456.416 166.028 456.297 166.683C455.95 168.665 456.237 170.214 455.12 175.043C454.905 175.972 454.378 177.485 453.909 178.724C453.674 179.346 453.454 179.906 453.292 180.309C453.131 180.713 453.03 180.956 453.03 180.957L454.011 181.364L455.002 181.744C455.01 181.724 455.835 179.569 456.937 175.908C457.217 174.976 457.327 173.95 457.328 172.902C457.326 171.061 456.984 169.154 456.426 167.618C456.143 166.85 455.812 166.175 455.381 165.623C455.164 165.348 454.919 165.1 454.612 164.901C454.309 164.705 453.923 164.558 453.501 164.559L453.367 164.565C452.608 164.612 451.933 164.996 451.468 165.497C450.762 166.253 450.365 167.227 450.02 168.316C449.68 169.405 449.42 170.623 449.155 171.851C448.814 173.437 448.303 175.215 447.878 176.588C447.666 177.275 447.475 177.862 447.338 178.275C447.2 178.689 447.118 178.925 447.118 178.926L448.121 179.274L448.419 178.256C448.359 178.24 445.917 177.522 442.787 177.52C441.369 177.521 439.807 177.669 438.257 178.117C436.709 178.564 435.166 179.319 433.844 180.531V180.53C432.431 181.828 431.586 183.527 431.088 185.291C430.591 187.059 430.432 188.912 430.432 190.613C430.434 194.114 431.109 196.985 431.118 197.032C431.252 197.603 431.824 197.958 432.394 197.824C432.965 197.691 433.319 197.119 433.186 196.548Z" fill="#E7E0FF"/>
<path d="M344.638 191.599C344.638 191.599 338.763 189.302 339.142 184.971C339.512 180.745 342.982 177.611 348.426 177.484C354.845 177.332 360.748 184.109 360.748 184.109C360.748 184.109 369.702 180.803 374.42 187.184C378.255 192.368 374.919 199.357 374.919 199.357C374.919 199.357 379.582 204.279 376.457 209.344C373.332 214.41 364.897 213.097 364.897 213.097C364.897 213.097 373.746 201.801 367.161 193.484C357.793 181.654 344.638 191.599 344.638 191.599Z" fill="#E7E0FF"/>
<path d="M378.863 198.001C378.863 198.001 383.724 186.156 390.033 181.305C395.97 176.74 405.429 175.141 408.232 181.425C410.483 186.473 407.609 192.042 401.339 194.996C390.779 199.974 378.863 198.001 378.863 198.001Z" fill="#E7E0FF"/>
<path d="M356.27 187.833C356.27 187.833 355.087 193.983 359.276 199.932C363.334 205.695 368.717 206.997 368.717 206.997C368.717 206.997 373.617 196.928 365.835 190.396C362.752 187.809 356.27 187.833 356.27 187.833Z" fill="#E7E0FF"/>
<path d="M340.954 201.645H342.016C342.016 197.942 343.514 194.598 345.94 192.17C348.369 189.744 351.712 188.246 355.416 188.246C359.119 188.246 362.463 189.744 364.891 192.17C367.318 194.598 368.815 197.942 368.816 201.645C368.815 205.349 367.318 208.692 364.891 211.121C362.463 213.548 359.119 215.045 355.416 215.046C351.712 215.045 348.369 213.548 345.94 211.121C343.514 208.692 342.016 205.349 342.016 201.645H340.954H339.893C339.894 210.219 346.842 217.168 355.416 217.169C363.989 217.168 370.939 210.219 370.94 201.645C370.939 193.071 363.989 186.122 355.416 186.122C346.842 186.122 339.894 193.071 339.893 201.645H340.954Z" fill="#E7E0FF"/>
<path d="M352.904 201.638C353.028 200.746 353.843 200.123 354.725 200.244C355.608 200.365 356.224 201.188 356.101 202.079C355.978 202.97 355.163 203.596 354.281 203.474C353.397 203.352 352.781 202.531 352.904 201.638Z" fill="#EF558A"/>
<path d="M350.231 197.662C350.335 196.909 351.031 196.382 351.783 196.485C352.537 196.589 353.064 197.285 352.96 198.039C352.856 198.793 352.161 199.319 351.407 199.215C350.653 199.111 350.127 198.417 350.231 197.662Z" fill="#E7E0FF"/>
<path d="M343.69 193.8C343.793 193.046 344.489 192.519 345.242 192.623C345.997 192.728 346.522 193.423 346.418 194.176C346.315 194.93 345.62 195.456 344.866 195.352C344.113 195.248 343.586 194.554 343.69 193.8Z" fill="#E7E0FF"/>
<path d="M349.109 201.835V201.836C349.086 201.878 348.904 202.204 348.633 202.521C348.364 202.845 348.004 203.127 347.749 203.197C347.47 203.281 347.199 203.315 346.935 203.315C346.462 203.316 346.017 203.201 345.698 203.081C345.54 203.022 345.414 202.963 345.333 202.921L345.247 202.876L345.233 202.868L345.043 203.187L345.239 202.871L345.233 202.868L345.043 203.187L345.239 202.871C344.741 202.563 344.085 202.716 343.777 203.215C343.469 203.714 343.622 204.369 344.121 204.676C344.211 204.724 345.318 205.428 346.935 205.439C347.383 205.439 347.869 205.38 348.37 205.227C349.303 204.93 349.91 204.306 350.332 203.8C350.749 203.286 350.973 202.851 350.995 202.81C351.265 202.288 351.06 201.648 350.54 201.38C350.019 201.11 349.378 201.314 349.109 201.835Z" fill="#E7E0FF"/>
<path d="M347.678 194.598L343.217 199.022C342.958 199.279 342.849 199.657 342.93 200.013C343.012 200.369 343.275 200.662 343.62 200.78L346.696 201.834C347.251 202.024 347.855 201.729 348.045 201.174C348.235 200.62 347.94 200.016 347.384 199.825L345.927 199.325L349.174 196.106C349.59 195.693 349.593 195.021 349.18 194.605C348.767 194.189 348.095 194.185 347.678 194.598Z" fill="#E7E0FF"/>
<path d="M353.23 444.701C353.23 449.206 353.583 461.463 353.583 461.471L354.645 461.44L354.58 460.38C354.576 460.38 352.913 460.481 350.14 460.633C341.821 461.09 323.553 462.002 310.67 462.002C307.222 462.002 304.16 461.936 301.797 461.781C300.617 461.705 299.61 461.604 298.832 461.484C298.059 461.368 297.494 461.209 297.311 461.112V461.113C297.118 461.02 297.047 460.941 297.038 460.928L297.037 460.925L296.964 460.964L297.044 460.944L297.037 460.925L296.964 460.964L297.044 460.944L297.014 460.952H297.045L297.044 460.944L297.014 460.952H297.045C297.042 460.941 297.061 460.802 297.197 460.575C297.427 460.175 297.976 459.57 298.754 458.913C299.922 457.917 301.593 456.765 303.493 455.567C305.395 454.368 307.53 453.117 309.651 451.89C313.29 449.784 317.283 447.946 320.357 446.641C321.895 445.988 323.204 445.468 324.125 445.111C324.587 444.933 324.951 444.796 325.2 444.704C325.448 444.611 325.577 444.565 325.578 444.565C326.129 444.367 326.416 443.759 326.218 443.206C326.019 442.655 325.411 442.369 324.86 442.566C324.829 442.579 316.096 445.711 308.589 450.052C305.344 451.929 302.043 453.874 299.51 455.661C298.243 456.558 297.167 457.411 296.363 458.238C295.961 458.653 295.625 459.062 295.367 459.496C295.114 459.929 294.925 460.404 294.921 460.952C294.916 461.389 295.07 461.855 295.346 462.211C295.62 462.571 295.98 462.826 296.381 463.022H296.382C296.954 463.293 297.629 463.442 298.507 463.582C301.114 463.982 305.45 464.123 310.67 464.126C327.964 464.124 354.698 462.5 354.709 462.5C355.282 462.465 355.723 461.982 355.705 461.409C355.705 461.407 355.684 460.644 355.651 459.424C355.552 455.769 355.354 448.021 355.354 444.701C355.354 444.114 354.879 443.64 354.292 443.64C353.706 443.64 353.23 444.114 353.23 444.701Z" fill="#E7E0FF"/>
<path d="M324.078 450.326L315.123 442.554C314.679 442.169 314.009 442.217 313.625 442.66C313.24 443.102 313.288 443.773 313.731 444.158L322.686 451.93C323.128 452.314 323.798 452.267 324.183 451.824C324.567 451.381 324.52 450.71 324.078 450.326Z" fill="#EF558A"/>
<path d="M319.6 452.301L310.644 444.529C310.201 444.145 309.531 444.193 309.147 444.636C308.763 445.079 308.809 445.75 309.253 446.134L318.208 453.906C318.651 454.29 319.321 454.243 319.705 453.8C320.09 453.357 320.043 452.686 319.6 452.301Z" fill="#EF558A"/>
<path d="M303.11 429.792C303.11 434.297 303.463 446.555 303.463 446.561L304.524 446.53L304.46 445.471C304.455 445.471 302.793 445.571 300.02 445.723C291.703 446.18 273.439 447.092 260.555 447.092C257.107 447.092 254.044 447.026 251.679 446.871C250.498 446.794 249.491 446.693 248.712 446.573C247.94 446.458 247.373 446.298 247.191 446.202C246.998 446.109 246.926 446.03 246.918 446.016L246.916 446.015L246.844 446.054L246.923 446.035L246.916 446.015L246.844 446.054L246.923 446.035L246.894 446.042H246.924L246.923 446.035L246.894 446.042H246.924C246.921 446.031 246.94 445.892 247.076 445.665C247.307 445.265 247.856 444.66 248.634 444.002C249.802 443.007 251.472 441.855 253.372 440.658C255.275 439.458 257.409 438.206 259.532 436.978C263.169 434.874 267.162 433.036 270.237 431.73C271.774 431.079 273.083 430.557 274.006 430.201C274.467 430.023 274.832 429.885 275.08 429.792C275.329 429.7 275.457 429.655 275.457 429.655C276.009 429.456 276.296 428.848 276.097 428.296C275.899 427.744 275.292 427.458 274.739 427.656C274.709 427.669 265.974 430.801 258.468 435.141C255.223 437.019 251.922 438.963 249.39 440.751C248.122 441.648 247.047 442.501 246.243 443.328C245.84 443.743 245.505 444.152 245.247 444.586C244.994 445.019 244.804 445.494 244.801 446.042C244.796 446.478 244.949 446.945 245.227 447.301C245.5 447.66 245.86 447.914 246.262 448.111C246.834 448.383 247.508 448.531 248.387 448.672C250.995 449.072 255.334 449.213 260.555 449.215C277.849 449.214 304.578 447.591 304.589 447.59C305.161 447.556 305.602 447.073 305.586 446.5C305.586 446.497 305.564 445.734 305.531 444.514C305.431 440.859 305.232 433.112 305.233 429.792C305.233 429.205 304.758 428.73 304.172 428.73C303.584 428.73 303.11 429.205 303.11 429.792Z" fill="#E7E0FF"/>
<path d="M273.957 435.414L265.001 427.642C264.558 427.258 263.887 427.306 263.503 427.748C263.119 428.191 263.166 428.862 263.609 429.247L272.565 437.019C273.008 437.403 273.679 437.355 274.063 436.913C274.447 436.47 274.4 435.798 273.957 435.414Z" fill="#EF558A"/>
<path d="M269.48 437.391L260.524 429.62C260.081 429.236 259.41 429.283 259.025 429.726C258.641 430.169 258.689 430.839 259.132 431.223L268.088 438.995C268.53 439.38 269.201 439.332 269.586 438.889C269.97 438.447 269.922 437.776 269.48 437.391Z" fill="#EF558A"/>
<path d="M146.721 394.35H147.783C147.783 394.015 148.054 393.743 148.39 393.743H180.734C181.069 393.743 181.34 394.014 181.34 394.35V398.902C181.34 399.238 181.068 399.509 180.734 399.51H148.39C148.055 399.509 147.783 399.237 147.783 398.902V394.35H146.721H145.66V398.902C145.66 400.41 146.882 401.632 148.39 401.633H180.734C182.243 401.632 183.464 400.409 183.464 398.902V394.35C183.464 392.841 182.242 391.62 180.734 391.619H148.39C146.883 391.62 145.66 392.84 145.66 394.35H146.721Z" fill="#E7E0FF"/>
<path d="M82.8248 98.4639H83.8866C83.8875 94.1498 85.6862 90.2522 88.6119 87.414C91.5389 84.5779 95.5813 82.8196 100.061 82.8196H234.91C239.39 82.8196 243.432 84.5779 246.359 87.414C249.284 90.2522 251.082 94.1498 251.083 98.4639V392.573C251.082 396.887 249.284 400.785 246.359 403.623C243.432 406.459 239.39 408.216 234.91 408.216H100.061C95.5813 408.216 91.5389 406.458 88.6119 403.623C85.6862 400.785 83.8875 396.887 83.8866 392.573V98.4639H82.8248H81.763V392.573C81.7624 397.486 83.8213 401.94 87.1341 405.147C90.4455 408.358 95.0205 410.34 100.061 410.34H234.91C239.951 410.34 244.526 408.358 247.836 405.147C251.149 401.94 253.208 397.486 253.207 392.573V98.4639C253.208 93.5511 251.149 89.097 247.836 85.8893C244.526 82.6785 239.951 80.6963 234.91 80.6963H100.061C95.0205 80.6963 90.4455 82.6785 87.1341 85.8893C83.8213 89.097 81.7624 93.5511 81.763 98.4639H82.8248Z" fill="#E7E0FF"/>
<path d="M97.1164 109.131H98.178C98.178 105.312 99.6705 101.867 102.076 99.3738C104.484 96.8817 107.787 95.3519 111.443 95.3507H223.528C227.184 95.3519 230.487 96.8817 232.895 99.3738C235.3 101.867 236.793 105.312 236.793 109.131V370.433C236.793 374.252 235.3 377.697 232.895 380.19C230.487 382.682 227.184 384.212 223.528 384.212H111.443C107.787 384.212 104.484 382.682 102.076 380.19C99.6705 377.697 98.178 374.252 98.178 370.433V109.131H97.1164H96.0546V370.433C96.054 374.811 97.7686 378.786 100.548 381.665C103.325 384.544 107.185 386.336 111.443 386.335H223.528C227.786 386.336 231.645 384.544 234.423 381.665C237.202 378.786 238.916 374.811 238.916 370.433V109.131C238.916 104.754 237.202 100.778 234.423 97.899C231.645 95.0196 227.786 93.2273 223.528 93.2273H111.443C107.185 93.2273 103.325 95.0196 100.548 97.899C97.7686 100.778 96.054 104.754 96.0546 109.131H97.1164Z" fill="#E7E0FF"/>
<path d="M146.002 105.644L106.362 142.1C105.931 142.497 105.902 143.17 106.3 143.601C106.697 144.033 107.368 144.06 107.8 143.663L147.44 107.206C147.871 106.809 147.9 106.138 147.503 105.706C147.106 105.275 146.433 105.246 146.002 105.644Z" fill="#E7E0FF"/>
<path d="M133.693 128.106L105.429 155.705C105.01 156.114 105.002 156.787 105.411 157.206C105.821 157.626 106.493 157.634 106.913 157.224L135.178 129.625C135.597 129.216 135.605 128.544 135.196 128.124C134.786 127.705 134.114 127.696 133.693 128.106Z" fill="#E7E0FF"/>
<path d="M226.955 221.629L187.314 258.087C186.881 258.484 186.854 259.156 187.251 259.587C187.648 260.019 188.319 260.047 188.751 259.649L228.392 223.192C228.823 222.794 228.852 222.124 228.455 221.691C228.058 221.26 227.386 221.232 226.955 221.629Z" fill="#E7E0FF"/>
<path d="M214.646 244.092L186.38 271.69C185.961 272.099 185.953 272.772 186.362 273.191C186.772 273.611 187.444 273.618 187.863 273.209L216.129 245.611C216.548 245.201 216.557 244.529 216.147 244.109C215.737 243.689 215.065 243.682 214.646 244.092Z" fill="#E7E0FF"/>
<path d="M236.182 106.483L220.823 116.046L222.349 121.64L233.843 120.928C233.843 120.928 238.348 131.178 246.027 133.771C253.708 136.366 256.35 135.527 261.95 132.19C267.548 128.852 267.514 120.079 267.514 120.079L294.151 119.246C294.151 119.246 297.131 107.32 294.459 98.9936C291.785 90.6672 279.449 82.0308 279.449 82.0308L255.599 97.04C255.599 97.04 252.978 95.3434 251.591 95.8063C250.202 96.2692 250.048 98.8907 250.048 98.8907C250.048 98.8907 247.222 96.9635 245.422 97.8628C243.622 98.7612 242.853 102.488 242.853 102.488C242.853 102.488 239.481 100.358 237.815 101.357C236.147 102.357 236.182 106.483 236.182 106.483Z" fill="#FEFEFE"/>
<path d="M86.5448 273.669C87.9001 281.567 92.4695 301.427 86.7723 301.697C82.8248 301.885 81.6353 295.233 79.8075 287.432C78.3601 281.252 76.591 272.448 79.3762 270.509C82.8248 268.108 86.0997 271.077 86.5448 273.669Z" fill="#FEFEFE"/>
<path d="M146.721 230.532C146.721 230.532 174.394 310.898 174.8 324.053C175.203 337.209 170.217 419.684 170.217 419.684H229.354C229.354 419.684 226.061 338.828 221.782 316.362C216.657 289.445 182.562 222.41 182.562 222.41L146.721 230.532Z" fill="#E7E0FF"/>
<path d="M137.475 222.41C137.475 222.41 122.773 233.268 121.189 243.673C119.606 254.077 128.428 266.745 128.428 266.745L118.249 302.486L98.2493 342.919C98.2493 342.919 97.775 371.504 98.6177 374.25C99.9579 378.612 104.07 383.82 110.682 384.047C117.718 384.289 134.436 384.171 134.436 384.171C134.436 384.171 161.169 329.855 164.561 315.605C167.954 301.354 174.8 225.576 174.8 225.576L137.475 222.41Z" fill="#FCBA5F"/>
<path d="M163.502 237.142C163.502 237.144 163.43 238.107 163.295 239.827C162.823 245.847 161.577 261.09 159.953 276.313C159.142 283.924 158.235 291.53 157.284 297.968C156.337 304.398 155.33 309.69 154.377 312.541C153.265 315.878 150.65 322.115 147.372 329.528C142.453 340.656 136.027 354.48 130.833 365.52C128.236 371.041 125.946 375.864 124.305 379.307C123.486 381.03 122.828 382.406 122.375 383.353C121.923 384.299 121.676 384.813 121.675 384.815C121.422 385.344 121.644 385.977 122.173 386.231C122.702 386.485 123.336 386.262 123.59 385.733C123.591 385.731 130.641 371.048 138.262 354.65C142.073 346.451 146.026 337.824 149.314 330.387C152.605 322.943 155.223 316.712 156.391 313.212C156.988 311.418 157.562 308.925 158.13 305.896C160.112 295.307 161.979 278.185 163.358 263.677C164.735 249.173 165.62 237.304 165.621 237.299C165.664 236.714 165.226 236.206 164.641 236.162C164.056 236.119 163.546 236.557 163.502 237.142Z" fill="#E7E0FF"/>
<path d="M129.998 205.916C129.998 205.916 128.066 233.96 165.849 231.512C191.777 229.832 205.063 199.96 205.063 199.96C205.063 199.96 236.262 219.413 253.883 208.176C271.504 196.94 278.204 144.001 269.396 134.104C263.171 127.108 243.176 126.403 235.607 136.394C227.582 146.984 230.468 162.817 230.468 162.817C230.468 162.817 209.399 143.95 163.254 149.196C127.886 153.217 112.812 168.306 96.929 182.83C87.7845 191.192 52.3449 239.319 59.593 266.171C61.9779 275.006 80.829 289.292 97.1616 272.022C112.625 255.672 129.998 205.916 129.998 205.916Z" fill="#EF558A"/>
<path d="M205.623 200.298C205.257 200.09 205.062 199.974 205.062 199.974L205.022 200.05C205.049 199.991 205.063 199.96 205.063 199.96C205.063 199.96 205.256 200.081 205.623 200.298Z" fill="#FEFEFE"/>
<path d="M137.86 224.451C137.712 224.321 137.567 224.188 137.424 224.055C137.567 224.188 137.712 224.321 137.861 224.451H137.86Z" fill="#FECC88"/>
<path d="M84.6748 279.635C84.6664 279.516 84.6071 279.418 84.6071 279.296C84.6071 276.357 86.9827 273.981 89.9217 273.981C91.277 273.981 92.4631 274.537 93.4088 275.369C90.4969 277.594 87.55 278.979 84.6748 279.635ZM75.4319 264.807C72.4929 264.807 70.1168 262.397 70.1168 259.458C70.1168 256.519 72.4929 254.141 75.4319 254.141C78.3706 254.141 80.748 256.519 80.7468 259.458C80.7468 262.397 78.3706 264.807 75.4319 264.807ZM103.159 264.264C101.36 263.404 100.112 261.583 100.113 259.458C100.112 256.519 102.489 254.141 105.428 254.141C106.617 254.141 107.658 254.601 108.542 255.259C106.774 258.472 104.972 261.535 103.159 264.264ZM89.9217 244.968C86.9827 244.968 84.6071 242.592 84.6071 239.654C84.6071 236.713 86.9827 234.303 89.9217 234.303C92.861 234.303 95.2712 236.713 95.2712 239.654C95.2712 242.592 92.861 244.968 89.9217 244.968ZM60.6376 244.833C61.4126 241.897 62.5783 238.898 63.7184 235.895C64.6688 236.861 65.2756 238.199 65.2756 239.654C65.2756 242.339 63.2281 244.471 60.6376 244.833ZM115.211 241.988C114.853 241.273 114.602 240.509 114.602 239.654C114.602 237.176 116.309 235.174 118.597 234.574C117.522 237.023 116.379 239.496 115.211 241.988ZM165.419 225.129C162.479 225.129 160.104 222.752 160.103 219.813C160.103 216.874 162.479 214.465 165.419 214.465C168.358 214.465 170.733 216.874 170.733 219.813C170.733 222.752 168.358 225.129 165.419 225.129ZM105.428 225.129C102.489 225.129 100.112 222.752 100.113 219.813C100.112 216.874 102.489 214.465 105.428 214.465C108.367 214.465 110.742 216.874 110.742 219.813C110.742 222.752 108.367 225.129 105.428 225.129ZM75.4319 225.129C72.9495 225.129 70.9405 223.397 70.3539 221.099C71.4889 218.936 72.6019 216.857 73.8073 214.77C74.3198 214.602 74.864 214.465 75.4319 214.465C78.3706 214.465 80.748 216.874 80.7468 219.813C80.7468 222.752 78.3706 225.129 75.4319 225.129ZM137.861 224.451C137.712 224.321 137.567 224.188 137.424 224.055C134.652 221.466 133.032 218.564 131.935 215.819C132.871 214.989 134.076 214.465 135.423 214.465C138.362 214.465 140.737 216.874 140.738 219.813C140.737 221.852 139.543 223.559 137.861 224.451ZM190.201 220.253C190.186 220.1 190.098 219.971 190.098 219.813C190.098 216.874 192.474 214.465 195.413 214.465L195.651 214.498C194.035 216.438 192.231 218.38 190.201 220.253ZM239.933 205.291C236.994 205.291 234.584 202.914 234.583 199.974C234.583 197.035 236.994 194.659 239.933 194.659C242.871 194.659 245.248 197.035 245.248 199.974C245.248 202.914 242.871 205.291 239.933 205.291ZM179.942 205.291C177.003 205.291 174.594 202.914 174.594 199.974C174.593 197.035 177.003 194.659 179.942 194.659C182.881 194.659 185.257 197.035 185.257 199.974C185.257 202.914 182.881 205.291 179.942 205.291ZM149.947 205.291C147.007 205.291 144.598 202.914 144.598 199.974C144.598 197.035 147.007 194.659 149.947 194.659C152.886 194.659 155.262 197.035 155.262 199.974C155.262 202.914 152.886 205.291 149.947 205.291ZM119.918 205.291C116.978 205.291 114.602 202.914 114.602 199.974C114.602 197.035 116.978 194.659 119.918 194.659C122.857 194.659 125.266 197.035 125.266 199.974C125.266 202.914 122.857 205.291 119.918 205.291ZM89.9217 205.291C86.9827 205.291 84.6071 202.914 84.6071 199.974C84.6071 197.035 86.9827 194.659 89.9217 194.659C92.861 194.659 95.2712 197.035 95.2712 199.974C95.2712 202.914 92.861 205.291 89.9217 205.291ZM213.053 204.173C209.478 202.458 206.746 200.939 205.623 200.298C205.256 200.081 205.063 199.96 205.063 199.96C205.063 199.96 205.049 199.991 205.022 200.051L204.723 200.618C204.696 200.397 204.589 200.204 204.589 199.974C204.589 197.035 206.998 194.659 209.937 194.659C212.877 194.659 215.253 197.035 215.253 199.974C215.253 201.724 214.354 203.205 213.053 204.173ZM255.404 185.45C252.465 185.45 250.089 183.075 250.089 180.136C250.089 177.196 252.465 174.821 255.404 174.821C258.344 174.821 260.72 177.196 260.72 180.136C260.72 183.075 258.344 185.45 255.404 185.45ZM225.409 185.45C222.47 185.45 220.095 183.075 220.095 180.136C220.093 177.196 222.47 174.821 225.409 174.821C228.349 174.821 230.724 177.196 230.724 180.136C230.724 183.075 228.349 185.45 225.409 185.45ZM195.413 185.45C192.474 185.45 190.098 183.075 190.098 180.136C190.098 177.196 192.474 174.821 195.413 174.821C198.353 174.821 200.728 177.196 200.728 180.136C200.728 183.075 198.353 185.45 195.413 185.45ZM165.419 185.45C162.479 185.45 160.104 183.075 160.103 180.136C160.103 177.196 162.479 174.821 165.419 174.821C168.358 174.821 170.733 177.196 170.733 180.136C170.733 183.075 168.358 185.45 165.419 185.45ZM135.423 185.45C132.483 185.45 130.108 183.075 130.108 180.136C130.108 177.196 132.483 174.821 135.423 174.821C138.362 174.821 140.737 177.196 140.738 180.136C140.737 183.075 138.362 185.45 135.423 185.45ZM105.428 185.45C102.489 185.45 100.112 183.075 100.113 180.136L100.146 179.966C102.003 178.263 103.893 176.568 105.8 174.888C108.555 175.089 110.742 177.329 110.742 180.136C110.742 183.075 108.367 185.45 105.428 185.45ZM269.929 165.612C266.988 165.612 264.612 163.236 264.612 160.297C264.612 157.357 266.988 154.981 269.929 154.981C271.118 154.981 272.158 155.44 273.042 156.098C272.918 158.997 272.654 161.946 272.264 165.036C271.552 165.389 270.778 165.612 269.929 165.612ZM239.933 165.612C236.994 165.612 234.584 163.236 234.583 160.297C234.583 157.357 236.994 154.981 239.933 154.981C242.871 154.981 245.248 157.357 245.248 160.297C245.248 163.236 242.871 165.612 239.933 165.612ZM209.937 165.612C206.998 165.612 204.589 163.236 204.589 160.297C204.589 157.357 206.998 154.981 209.937 154.981C212.877 154.981 215.253 157.357 215.253 160.297C215.253 163.236 212.877 165.612 209.937 165.612ZM179.942 165.612C177.003 165.612 174.594 163.236 174.594 160.297C174.593 157.357 177.003 154.981 179.942 154.981C182.881 154.981 185.257 157.357 185.257 160.297C185.257 163.236 182.881 165.612 179.942 165.612ZM149.947 165.612C147.007 165.612 144.598 163.236 144.598 160.297C144.598 157.357 147.007 154.981 149.947 154.981C152.886 154.981 155.262 157.357 155.262 160.297C155.262 163.236 152.886 165.612 149.947 165.612ZM119.918 165.612C119.253 165.612 118.607 165.462 118.022 165.24C120.271 163.695 122.653 162.242 125.164 160.839C124.879 163.51 122.665 165.612 119.918 165.612ZM255.404 145.773C252.465 145.773 250.089 143.397 250.089 140.458C250.089 137.519 252.465 135.143 255.404 135.143C258.344 135.143 260.72 137.519 260.72 140.458C260.72 143.397 258.344 145.773 255.404 145.773Z" fill="#F179A5"/>
<path d="M187.014 151.993L183.411 164.164L174.645 153.556C174.426 153.29 174.095 153.149 173.751 153.174C173.408 153.198 173.1 153.385 172.92 153.679L164.572 167.335L157.062 154.768C156.761 154.265 156.109 154.1 155.606 154.401C155.103 154.703 154.938 155.355 155.239 155.858L163.65 169.933C163.841 170.252 164.184 170.447 164.556 170.45C164.928 170.452 165.273 170.26 165.468 169.941L173.955 156.056L183.044 167.053C183.295 167.357 183.69 167.496 184.075 167.417C184.459 167.339 184.769 167.055 184.881 166.678L189.05 152.596C189.217 152.033 188.895 151.443 188.334 151.276C187.771 151.11 187.181 151.431 187.014 151.993Z" fill="#FEFEFE"/>
<path d="M203.835 173.697L203.837 173.705C203.917 173.919 205.616 178.644 205.614 185.531C205.614 185.973 205.608 186.424 205.593 186.882C205.524 189.059 205.146 191.461 204.783 193.303C204.601 194.225 204.424 195.007 204.292 195.557C204.227 195.832 204.174 196.05 204.135 196.196C204.098 196.344 204.079 196.417 204.079 196.417C203.926 196.984 204.263 197.566 204.828 197.718C205.396 197.87 205.977 197.534 206.129 196.967C206.137 196.927 207.558 191.671 207.715 186.95C207.73 186.469 207.738 185.995 207.738 185.531C207.737 178.062 205.852 173.032 205.822 172.951C205.616 172.402 205.004 172.124 204.455 172.331C203.906 172.537 203.629 173.149 203.835 173.697Z" fill="#FEFEFE"/>
<path d="M278.452 81.5595L255.464 95.6724C254.964 95.9794 254.808 96.6334 255.115 97.1324C255.422 97.6324 256.075 97.7886 256.575 97.4828L279.564 83.3698C280.063 83.0628 280.219 82.4088 279.913 81.9089C279.607 81.4099 278.952 81.2537 278.452 81.5595Z" fill="#E7E0FF"/>
<path d="M293.891 118.298L245.998 119.593C245.412 119.609 244.95 120.096 244.966 120.682C244.982 121.268 245.47 121.731 246.056 121.716L293.948 120.421C294.534 120.405 294.997 119.917 294.981 119.331C294.965 118.745 294.477 118.282 293.891 118.298Z" fill="#E7E0FF"/>
<path d="M234.639 119.921L223.133 120.562L222.017 116.59L236.676 107.894C237.181 107.595 237.347 106.943 237.048 106.439C236.748 105.934 236.097 105.769 235.592 106.068L220.233 115.18C219.82 115.426 219.622 115.917 219.753 116.38L221.319 121.958C221.454 122.435 221.904 122.758 222.401 122.731L234.757 122.042C235.343 122.008 235.791 121.507 235.758 120.922C235.725 120.336 235.224 119.888 234.639 119.921Z" fill="#E7E0FF"/>
<path d="M279.063 81.4502C279.063 81.4502 291.517 83.5236 295.483 97.3999C300.006 113.235 294.636 120.079 294.636 120.079C294.636 120.079 284.005 115.434 279.67 102.305C275.562 89.8636 279.063 81.4502 279.063 81.4502Z" fill="#E7E0FF"/>
<path d="M262.775 134.439C262.787 134.424 263.516 133.522 264.395 132.244C265.273 130.961 266.302 129.318 266.922 127.734V127.732C268.405 123.904 268.567 120.192 268.575 120.129C268.601 119.543 268.148 119.046 267.563 119.02C266.977 118.992 266.48 119.445 266.453 120.03L266.451 120.061C266.434 120.411 266.202 123.737 264.942 126.963C264.438 128.267 263.475 129.835 262.644 131.042C262.229 131.647 261.845 132.166 261.567 132.533C261.429 132.715 261.317 132.86 261.239 132.958C261.163 133.056 261.125 133.104 261.125 133.104C260.755 133.559 260.826 134.228 261.282 134.597C261.738 134.965 262.407 134.895 262.775 134.439Z" fill="#E7E0FF"/>
<path d="M259.569 124.338C259.535 124.287 259.07 123.571 258.177 122.735C257.286 121.901 255.958 120.94 254.192 120.475C253.177 120.21 252.098 120.126 251.062 120.125C248.505 120.128 246.195 120.649 246.152 120.656L246.384 121.692L247.18 120.99C247.165 120.974 245.292 118.846 242.935 116.693C241.756 115.616 240.457 114.532 239.179 113.691C238.539 113.271 237.902 112.911 237.271 112.645C236.639 112.382 236.008 112.202 235.35 112.2C235.003 112.199 234.645 112.254 234.301 112.388C233.59 112.659 233.013 113.191 232.685 113.827C232.352 114.463 232.231 115.171 232.23 115.906C232.239 117.627 232.878 119.598 233.869 121.647C234.866 123.688 236.232 125.784 237.786 127.613C239.458 129.58 241.792 131.744 243.723 133.44C245.652 135.131 247.172 136.344 247.18 136.35C247.639 136.715 248.307 136.64 248.672 136.182C249.038 135.724 248.963 135.056 248.504 134.689C248.504 134.689 248.414 134.618 248.245 134.481C247.655 134.002 246.124 132.743 244.397 131.2C242.673 129.66 240.75 127.825 239.404 126.239C237.972 124.554 236.688 122.583 235.778 120.715C234.864 118.854 234.345 117.073 234.353 115.906C234.352 115.409 234.442 115.042 234.563 114.817C234.689 114.592 234.812 114.476 235.073 114.366C235.133 114.343 235.22 114.324 235.35 114.324C235.593 114.321 235.984 114.405 236.448 114.603C237.264 114.943 238.288 115.604 239.317 116.404C240.865 117.604 242.445 119.11 243.627 120.31C244.217 120.91 244.711 121.433 245.053 121.806C245.226 121.992 245.36 122.14 245.45 122.241C245.542 122.342 245.588 122.394 245.588 122.394C245.842 122.684 246.238 122.813 246.615 122.729L246.701 122.71C247.127 122.62 249.077 122.248 251.062 122.249C251.977 122.248 252.899 122.329 253.654 122.529C254.961 122.87 256.01 123.613 256.726 124.285C257.084 124.62 257.358 124.934 257.537 125.158C257.627 125.269 257.693 125.358 257.734 125.417L257.778 125.48L257.786 125.491L257.993 125.355L257.784 125.489L257.786 125.491L257.993 125.355L257.784 125.489C258.102 125.982 258.76 126.124 259.253 125.807C259.745 125.488 259.886 124.831 259.569 124.338Z" fill="#E7E0FF"/>
<path d="M254.327 96.1417L253.721 97.0136C254.676 97.673 255.683 98.8866 256.412 100.375C257.148 101.863 257.616 103.619 257.615 105.356C257.615 105.55 257.609 105.745 257.597 105.938V105.939C257.532 107.069 257.291 107.852 257.043 108.25C256.921 108.452 256.807 108.556 256.723 108.609C256.639 108.66 256.582 108.676 256.481 108.679C256.355 108.68 256.133 108.631 255.828 108.445C255.526 108.261 255.154 107.944 254.759 107.485C253.803 106.38 252.826 104.584 252.129 102.837C251.779 101.965 251.493 101.101 251.3 100.344C251.105 99.5905 251.007 98.932 251.01 98.535C251.009 98.4267 251.016 98.3409 251.025 98.2834C251.096 97.7811 251.312 97.2875 251.581 96.9784C251.862 96.6663 252.119 96.5326 252.473 96.5272C252.756 96.5272 253.165 96.6281 253.721 97.0136L254.327 96.1417L254.933 95.2701C254.12 94.703 253.284 94.4039 252.473 94.4039C251.433 94.3972 250.541 94.9164 249.97 95.596C249.389 96.2789 249.052 97.1165 248.924 97.9743C248.897 98.1591 248.886 98.3451 248.886 98.535C248.889 99.2252 249.022 100.003 249.242 100.871C249.916 103.46 251.364 106.772 253.149 108.869C253.655 109.455 254.172 109.92 254.72 110.257C255.267 110.59 255.858 110.802 256.481 110.803C256.963 110.805 257.453 110.664 257.862 110.402C258.48 110.006 258.905 109.394 259.196 108.671C259.487 107.942 259.655 107.08 259.718 106.067C259.731 105.829 259.739 105.593 259.739 105.356C259.737 103.241 259.182 101.192 258.317 99.4355C257.448 97.6803 256.279 96.2118 254.933 95.2713V95.2701L254.327 96.1417Z" fill="#E7E0FF"/>
<path d="M247.946 99.0457L247.252 99.8493C248.26 100.712 249.337 102.224 250.12 103.973C250.909 105.722 251.416 107.71 251.413 109.515C251.413 110.003 251.378 110.479 251.302 110.932C251.113 112.097 250.779 112.923 250.445 113.378C250.281 113.609 250.123 113.745 249.993 113.821C249.86 113.897 249.757 113.922 249.628 113.924C249.448 113.924 249.18 113.857 248.819 113.608C248.461 113.363 248.032 112.939 247.588 112.324C246.673 111.068 245.801 108.913 245.209 106.768C244.609 104.626 244.267 102.451 244.27 101.197C244.269 100.822 244.305 100.532 244.337 100.418C244.472 99.8971 244.686 99.4683 244.896 99.2326C245.001 99.1125 245.099 99.0394 245.19 98.9936C245.282 98.95 245.368 98.9256 245.496 98.9247C245.644 98.9247 245.858 98.9629 246.156 99.1019C246.452 99.2389 246.822 99.4779 247.252 99.8493L247.946 99.0457L248.639 98.2409C248.097 97.7738 247.575 97.421 247.055 97.1781C246.537 96.9349 246.013 96.801 245.496 96.801C245.051 96.801 244.618 96.9051 244.245 97.0929C243.68 97.3744 243.259 97.8171 242.95 98.2992C242.641 98.7856 242.431 99.3217 242.283 99.8761V99.8769C242.178 100.286 242.149 100.711 242.146 101.197C242.151 102.781 242.525 105.036 243.164 107.338C243.809 109.636 244.697 111.937 245.867 113.567C246.417 114.328 246.99 114.924 247.61 115.354C248.227 115.782 248.912 116.047 249.628 116.048C250.131 116.049 250.633 115.909 251.065 115.654C251.717 115.269 252.209 114.666 252.585 113.934C252.96 113.197 253.226 112.313 253.398 111.278C253.493 110.698 253.537 110.108 253.537 109.515C253.535 107.322 252.947 105.084 252.056 103.102C251.16 101.119 249.972 99.396 248.639 98.2409L247.946 99.0457Z" fill="#E7E0FF"/>
<path d="M240.793 102.261L240.06 103.029C242.043 104.9 243.692 108.56 243.681 112.537C243.681 113.075 243.651 113.619 243.59 114.166C243.487 115.118 243.258 115.723 243.066 115.995C242.97 116.134 242.895 116.191 242.846 116.22L242.692 116.257C242.547 116.267 242.159 116.149 241.681 115.749C241.203 115.361 240.652 114.731 240.122 113.913H240.123C238.029 110.7 237.366 106.985 237.212 105.056C237.201 104.922 237.195 104.791 237.195 104.663C237.193 103.854 237.415 103.204 237.699 102.812C237.84 102.615 237.993 102.482 238.14 102.399C238.29 102.316 238.434 102.277 238.611 102.275C238.93 102.275 239.426 102.428 240.06 103.029L240.793 102.261L241.525 101.492C240.627 100.634 239.625 100.153 238.611 100.152C238.072 100.151 237.549 100.293 237.101 100.547C236.423 100.929 235.916 101.536 235.58 102.244C235.245 102.955 235.073 103.778 235.072 104.663C235.072 104.849 235.08 105.039 235.095 105.23C235.278 107.393 235.967 111.4 238.341 115.069C238.964 116.027 239.629 116.812 240.335 117.393C241.04 117.964 241.807 118.372 242.692 118.381C243.102 118.383 243.528 118.278 243.897 118.065C244.457 117.745 244.861 117.228 245.142 116.618C245.424 116.002 245.601 115.274 245.7 114.402C245.77 113.774 245.804 113.152 245.804 112.537C245.791 107.988 244.015 103.883 241.525 101.492L240.793 102.261Z" fill="#E7E0FF"/>
<path d="M280.255 93.8718L280.263 93.873C280.402 93.8973 282.068 94.2371 283.819 95.1969C284.696 95.6758 285.59 96.3063 286.34 97.1102C287.092 97.9171 287.703 98.8887 288.047 100.099C288.34 101.128 288.457 102.136 288.457 103.097C288.459 105.05 287.965 106.814 287.466 108.079C287.216 108.712 286.968 109.22 286.784 109.564C286.693 109.735 286.617 109.866 286.566 109.951L286.51 110.044L286.498 110.064L286.497 110.065C286.178 110.556 286.318 111.214 286.81 111.533C287.301 111.853 287.96 111.713 288.278 111.221C288.327 111.131 290.568 107.716 290.581 103.097C290.581 101.962 290.442 100.755 290.09 99.5192C289.632 97.9012 288.785 96.5898 287.8 95.5641C286.319 94.0225 284.541 93.0956 283.134 92.536C281.725 91.9786 280.677 91.7896 280.628 91.78C280.05 91.6783 279.499 92.0626 279.396 92.639C279.293 93.2165 279.678 93.7688 280.255 93.8718Z" fill="#FCBA5F"/>
<path d="M187.908 129.519L188.969 129.541C188.971 129.439 188.972 129.338 188.972 129.237C188.972 121.254 182.584 114.707 174.568 114.543C174.467 114.541 174.365 114.54 174.265 114.54C166.281 114.54 159.734 120.926 159.571 128.944C159.569 129.046 159.568 129.148 159.568 129.25C159.569 137.231 165.954 143.778 173.97 143.941C174.072 143.944 174.173 143.945 174.274 143.945C182.258 143.944 188.804 137.557 188.969 129.541L187.908 129.519L186.846 129.497C186.707 136.355 181.101 141.822 174.274 141.821L174.014 141.819C167.156 141.681 161.69 136.075 161.691 129.25L161.694 128.987V128.986C161.832 122.127 167.437 116.662 174.265 116.663L174.526 116.666C181.383 116.804 186.85 122.411 186.849 129.237L186.846 129.497L187.908 129.519Z" fill="#E7E0FF"/>
<path d="M176.585 107.743C181.8 108.661 180.975 114.152 180.975 114.152C180.975 114.152 184.257 111.576 187.688 115.079C191.358 118.826 187.511 123.768 187.511 123.768C187.511 123.768 184.79 120.035 181.604 118.007C178.618 116.105 175.155 115.899 175.155 115.899C175.155 115.899 173.75 122.858 167.993 127.764C164.842 130.451 162.636 131.074 161.568 131.3C162.57 135.966 167.029 141.301 167.029 141.301C167.029 141.301 159.652 145.113 155.738 140.852C152.655 137.494 155.487 133.014 155.487 133.014C155.487 133.014 149.472 131.512 150.989 124.095C151.927 119.493 157.465 117.554 157.465 117.554C157.465 117.554 156.779 112.593 160.629 110.07C165.27 107.029 169.885 110.861 169.885 110.861C169.885 110.861 172.81 107.077 176.585 107.743Z" fill="#E7E0FF"/>
<path d="M174.27 129.964C174.287 129.093 173.595 128.371 172.722 128.353C171.849 128.335 171.128 129.028 171.11 129.901C171.092 130.772 171.785 131.494 172.657 131.512C173.53 131.529 174.251 130.836 174.27 129.964Z" fill="#EF558A"/>
<path d="M176.779 126.044C176.793 125.351 176.243 124.779 175.549 124.764C174.857 124.75 174.284 125.3 174.27 125.993C174.255 126.686 174.806 127.259 175.498 127.273C176.192 127.288 176.764 126.737 176.779 126.044Z" fill="#E7E0FF"/>
<path d="M184.326 122.867C184.341 122.174 183.79 121.601 183.096 121.587C182.404 121.572 181.832 122.123 181.817 122.816C181.803 123.508 182.353 124.081 183.045 124.095C183.739 124.109 184.312 123.559 184.326 122.867Z" fill="#E7E0FF"/>
<path d="M178.828 124.045L181.493 127.597L180.717 127.586C180.131 127.579 179.649 128.048 179.641 128.635C179.635 129.221 180.104 129.702 180.69 129.709L183.625 129.747C184.028 129.752 184.402 129.525 184.585 129.166C184.767 128.806 184.729 128.369 184.487 128.048L180.527 122.771C180.174 122.302 179.51 122.207 179.04 122.559C178.571 122.911 178.476 123.577 178.828 124.045Z" fill="#E7E0FF"/>
<path d="M175.411 134.884L176.439 134.616C176.403 134.477 176.386 134.339 176.386 134.203C176.386 133.482 176.871 132.816 177.605 132.628C177.745 132.591 177.883 132.574 178.018 132.574C178.739 132.576 179.405 133.061 179.594 133.794C179.629 133.934 179.647 134.071 179.647 134.207C179.647 134.928 179.161 135.594 178.428 135.783C178.287 135.819 178.15 135.836 178.015 135.836C177.294 135.835 176.628 135.35 176.439 134.616L175.411 134.884L174.383 135.151C174.826 136.841 176.343 137.96 178.015 137.96C178.328 137.96 178.647 137.92 178.963 137.837C180.651 137.396 181.771 135.877 181.77 134.207C181.77 133.893 181.731 133.574 181.649 133.259C181.206 131.57 179.689 130.451 178.018 130.451C177.705 130.451 177.385 130.491 177.07 130.573C175.382 131.015 174.261 132.533 174.262 134.203C174.262 134.517 174.302 134.836 174.383 135.151L175.411 134.884Z" fill="#E7E0FF"/>
<path d="M67.0002 268.494C66.9057 268.545 56.4809 273.253 49.4008 284.409C48.0317 286.571 46.8347 288.755 45.9679 290.737C45.106 292.729 44.551 294.484 44.5401 295.975C44.5416 296.515 44.6166 297.038 44.8414 297.528C45.0605 298.018 45.4692 298.464 45.9887 298.706H45.9881C46.4694 298.937 46.9831 299.04 47.4746 299.039C48.4079 299.036 49.2458 298.699 49.988 298.266C51.1007 297.61 52.0395 296.7 52.729 295.95C53.4161 295.2 53.8432 294.605 53.8607 294.582L52.9984 293.963L53.8212 294.634L59.3269 287.881L58.5041 287.21L57.6192 286.623C57.5864 286.673 56.0135 289.053 53.5967 294.417C52.3061 297.296 51.3855 300.196 51.3779 302.751C51.3779 303.703 51.5104 304.616 51.833 305.453C52.1538 306.29 52.6793 307.049 53.411 307.629C53.8694 308 54.4458 308.23 55.0233 308.225C55.5615 308.225 56.0505 308.044 56.4623 307.79C57.1843 307.34 57.7489 306.678 58.2898 305.912C59.0928 304.76 59.8139 303.337 60.4733 301.95C61.1304 300.567 61.7227 299.215 62.2045 298.275C63.0536 296.613 64.1025 294.875 64.9359 293.559C65.3527 292.901 65.7154 292.348 65.9739 291.961C66.1028 291.767 66.2057 291.615 66.2758 291.512C66.3459 291.408 66.3821 291.356 66.3821 291.356L65.5086 290.753L64.5455 290.305C64.5422 290.313 64.0447 291.385 63.4759 292.745C62.9064 294.111 62.2678 295.74 61.9641 296.979C61.5894 298.528 61.2258 300.64 61.2237 302.678C61.2294 304.146 61.4003 305.582 62.0134 306.794C62.3216 307.396 62.7613 307.947 63.3591 308.339C63.9556 308.733 64.6927 308.942 65.4839 308.939V308.039L65.4572 308.938L65.4839 308.939V308.039L65.4572 308.938L65.4903 308.939C66.4206 308.948 67.2844 308.573 67.895 307.984C68.8169 307.098 69.3108 305.89 69.7737 304.509C70.2279 303.126 70.6182 301.542 71.1145 299.891C72.1746 296.356 73.3568 293.384 74.6128 291.381C75.2379 290.38 75.8793 289.627 76.4857 289.158C77.0985 288.687 77.6366 288.494 78.188 288.491L78.2584 288.492H78.26C78.48 288.5 78.6217 288.538 78.7268 288.584C78.9013 288.667 79.0316 288.779 79.2008 289.087C79.4503 289.54 79.6526 290.396 79.8283 291.47C80.0104 292.544 80.1907 293.837 80.5299 295.229C81.075 297.453 81.8271 299.163 82.7481 300.384C83.2101 300.994 83.7178 301.483 84.2839 301.834C84.8477 302.182 85.4809 302.387 86.1271 302.386C86.7302 302.387 87.3253 302.205 87.8429 301.886C88.3633 301.566 88.8142 301.118 89.2042 300.57H89.2036C89.7048 299.859 89.9759 299 90.1556 298.027C90.3311 297.054 90.4006 295.957 90.4012 294.772C90.3991 290.928 89.6569 286.126 88.9222 282.248C88.186 278.374 87.4514 275.441 87.4481 275.428C87.306 274.859 86.729 274.514 86.1602 274.657C85.5914 274.799 85.2458 275.375 85.3885 275.945C85.3885 275.945 85.4324 276.12 85.5113 276.449C85.7876 277.603 86.4825 280.604 87.1058 284.113C87.7301 287.617 88.2796 291.642 88.2775 294.772C88.2784 295.871 88.2095 296.857 88.066 297.649C87.9257 298.443 87.697 299.034 87.4742 299.338L87.4739 299.339C87.2157 299.703 86.9578 299.938 86.7336 300.075C86.506 300.212 86.3194 300.26 86.1271 300.262C85.9221 300.261 85.6883 300.203 85.3984 300.025C84.9665 299.763 84.4356 299.212 83.936 298.328C83.4349 297.446 82.963 296.243 82.5931 294.726C82.1181 292.794 81.9758 290.97 81.5818 289.448C81.378 288.688 81.1117 287.971 80.5793 287.369C80.3138 287.071 79.9767 286.815 79.5894 286.644C79.2014 286.471 78.7734 286.384 78.328 286.37H78.3298L78.188 286.368C77.088 286.365 76.0595 286.795 75.1819 287.483C73.86 288.519 72.7783 290.113 71.7821 292.117C70.7907 294.124 69.9007 296.553 69.0812 299.28C68.3995 301.56 67.9185 303.628 67.3316 304.995C67.043 305.679 66.7309 306.169 66.4404 306.437C66.1419 306.703 65.918 306.804 65.4873 306.815L65.4891 307.877L65.521 306.815H65.4839C65.0394 306.812 64.7592 306.715 64.5238 306.564C64.1783 306.34 63.8749 305.909 63.66 305.217C63.4473 304.535 63.3458 303.639 63.3473 302.678C63.3455 300.896 63.682 298.898 64.0275 297.48C64.2656 296.489 64.8835 294.878 65.4346 293.563C65.7109 292.904 65.9709 292.311 66.1617 291.884C66.3526 291.457 66.4714 291.2 66.4714 291.2C66.7038 290.7 66.5142 290.104 66.0359 289.831C65.5574 289.558 64.9482 289.695 64.6349 290.149C64.6223 290.169 62.1067 293.805 60.3138 297.307C59.512 298.881 58.5531 301.202 57.5178 303.099C57.0052 304.045 56.4704 304.879 55.9873 305.416C55.7478 305.685 55.5232 305.876 55.352 305.98C55.1774 306.086 55.0763 306.102 55.0233 306.102C54.9667 306.097 54.9078 306.1 54.7338 305.967C54.3121 305.63 54.0211 305.218 53.8137 304.687C53.6087 304.159 53.501 303.507 53.5016 302.751C53.4935 300.722 54.3028 298.006 55.5329 295.289C56.7187 292.657 57.6908 290.772 58.3626 289.55C58.6982 288.939 58.9592 288.496 59.1337 288.206C59.2213 288.061 59.2869 287.956 59.33 287.888L59.3769 287.815L59.3889 287.797C59.7023 287.325 59.5903 286.692 59.1337 286.355C58.6771 286.019 58.0397 286.099 57.6812 286.539L52.1755 293.292L52.1361 293.343L52.112 293.375C51.9739 293.563 51.2488 294.514 50.3074 295.375C49.8388 295.806 49.3157 296.213 48.8127 296.492C48.3086 296.775 47.8367 296.919 47.4746 296.915C47.2669 296.915 47.0903 296.877 46.9043 296.79C46.8396 296.753 46.8269 296.748 46.7694 296.638C46.7177 296.531 46.6626 296.306 46.6638 295.975C46.653 295.049 47.1005 293.43 47.914 291.588C48.7219 289.738 49.8728 287.631 51.1946 285.545C54.5457 280.254 58.7328 276.46 62.0799 273.998C63.7527 272.767 65.2146 271.868 66.2517 271.281C66.7706 270.987 67.1829 270.772 67.4628 270.63C67.6025 270.559 67.709 270.507 67.7792 270.474L67.8565 270.438L67.8767 270.429C68.4106 270.187 68.6478 269.557 68.4055 269.023C68.1638 268.489 67.5345 268.252 67.0002 268.494Z" fill="#E7E0FF"/>
<path d="M179.846 423.928C179.846 426.138 179.758 430.325 179.67 433.947C179.626 435.76 179.582 437.431 179.549 438.65C179.516 439.871 179.494 440.634 179.494 440.636C179.477 441.209 179.918 441.691 180.491 441.726C180.501 441.726 207.23 443.351 224.524 443.352C228.002 443.351 231.098 443.286 233.539 443.127C234.761 443.046 235.818 442.943 236.692 442.808C237.571 442.667 238.245 442.518 238.818 442.248C239.219 442.051 239.579 441.797 239.853 441.437C240.129 441.082 240.283 440.615 240.279 440.178C240.275 439.63 240.086 439.156 239.833 438.722C239.38 437.967 238.694 437.269 237.822 436.523C236.516 435.411 234.784 434.225 232.839 432.998C230.895 431.771 228.74 430.508 226.612 429.277C219.104 424.938 210.371 421.807 210.34 421.793C209.788 421.595 209.18 421.882 208.982 422.434C208.784 422.985 209.07 423.594 209.622 423.792C209.622 423.792 209.751 423.838 209.999 423.93C211.737 424.575 219.178 427.429 225.548 431.115C228.78 432.984 232.048 434.914 234.465 436.622C235.672 437.474 236.666 438.275 237.313 438.942C237.636 439.275 237.871 439.575 238.004 439.801C238.139 440.029 238.159 440.168 238.155 440.178H238.202L238.158 440.163L238.155 440.178H238.202L238.158 440.163L238.213 440.181L238.164 440.15L238.158 440.163L238.213 440.181L238.164 440.15C238.165 440.152 238.106 440.233 237.889 440.339C237.706 440.434 237.14 440.595 236.367 440.709C234.017 441.075 229.692 441.229 224.524 441.228C215.937 441.228 204.953 440.823 196.124 440.417C191.709 440.214 187.833 440.013 185.06 439.86C182.286 439.708 180.623 439.607 180.619 439.607L180.556 440.667L181.616 440.697C181.616 440.691 181.97 428.434 181.97 423.928C181.97 423.342 181.494 422.866 180.908 422.866C180.322 422.866 179.846 423.342 179.846 423.928Z" fill="#E7E0FF"/>
<path d="M212.515 431.155L221.471 423.383C221.914 422.999 221.961 422.328 221.577 421.885C221.192 421.443 220.522 421.394 220.079 421.779L211.123 429.551C210.68 429.936 210.632 430.607 211.017 431.049C211.401 431.492 212.072 431.54 212.515 431.155Z" fill="#EF558A"/>
<path d="M216.992 433.132L225.948 425.36C226.391 424.976 226.439 424.305 226.054 423.863C225.67 423.419 224.999 423.372 224.556 423.756L215.6 431.528C215.157 431.913 215.11 432.584 215.494 433.026C215.878 433.469 216.549 433.517 216.992 433.132Z" fill="#EF558A"/>
</svg>
