<?xml version="1.0" encoding="UTF-8"?>
<!DOCTYPE svg PUBLIC "-//W3C//DTD SVG 1.1//EN" "http://www.w3.org/Graphics/SVG/1.1/DTD/svg11.dtd">
<!-- Creator: CorelDRAW -->
<svg xmlns="http://www.w3.org/2000/svg" xml:space="preserve" width="21.6746mm" height="21.6746mm" version="1.1" style="shape-rendering:geometricPrecision; text-rendering:geometricPrecision; image-rendering:optimizeQuality; fill-rule:evenodd; clip-rule:evenodd"
viewBox="0 0 2167.46 2167.46"
 xmlns:xlink="http://www.w3.org/1999/xlink"
 xmlns:xodm="http://www.corel.com/coreldraw/odm/2003">
 <defs>
  <style type="text/css">
   <![CDATA[
    .fil3 {fill:#28B346}
    .fil0 {fill:#333333}
    .fil1 {fill:#518DF6}
    .fil2 {fill:#EF4336}
    .fil4 {fill:#FABA00}
   ]]>
  </style>
 </defs>
 <g id="Layer_x0020_1">
  <metadata id="CorelCorpID_0Corel-Layer"/>
  <g id="_1971623460096">
   <path class="fil0" d="M222.96 1587.24l129.12 -106.59c24.78,-20.27 115.89,-100.9 135.55,-105.91 59.65,96.83 58.85,109.81 144.92,193.47 163.94,159.36 409.08,214.82 639.03,149.45 47.87,-13.61 80.15,-32.4 120.97,-47.01 45.81,36.27 89.05,73.26 134.87,110.84l136.63 109.34c-10.07,14.81 -15.37,15.69 -35.4,29.12l-127.67 70.78c-65.6,29.43 -123.94,50.22 -199.27,67.31 -158.5,35.96 -321.9,30.43 -476.56,-9.77 -188.7,-49.04 -302.39,-130.39 -426.33,-236.82 -26.69,-22.92 -42.13,-44.56 -66.09,-69.39 -21.62,-22.4 -40.46,-47.63 -58.31,-72.18l-51.46 -82.64zm1507.3 251.48c-15.06,-19.9 -244.07,-195.32 -259.16,-217.61 12.25,-12.31 25.22,-20.79 36.79,-29.93 69.99,-55.26 217.69,-244.54 193.72,-307.15 -13.44,-35.14 -77.29,-25.24 -115.4,-25.23l-437.34 0 -0.34 -326.32 921.66 0.01c30.58,280.22 -22.13,526.86 -183.41,742.45 -33.43,44.71 -114.77,144.77 -156.52,163.78zm-1553.41 -331.66c-7.02,-27.01 -25.62,-62.76 -36.7,-95.1 -35.58,-103.94 -54.9,-210.44 -55.48,-323.03 -0.66,-127.6 33.45,-322.47 89.49,-414.21l203.97 165.68c23.73,19.78 43.51,40.08 68.29,52.75 -5.99,66.17 -26.82,83.06 -25.13,200.73 1.66,115.94 22.23,131.12 29.66,193.41l-135.87 112.98c-33.62,25.89 -115.48,100.46 -138.23,106.79zm38.91 -911.6c7.72,-35.96 87.85,-137.43 110,-161.82 130.92,-144.17 285.99,-259.88 498.94,-313.86 333.37,-84.5 634.93,0.91 851.79,162.49l-132.23 111.53c-169.84,133.18 -107.02,122.7 -201.09,81.81 -244.63,-106.35 -533.15,-48.45 -718.02,131.48 -110.81,107.84 -124.88,177.61 -147.2,202.36 -15.24,-8.34 -22.72,-16.22 -36.2,-27.75 -69.12,-59.18 -161.18,-125.95 -225.99,-186.24zm867.13 -87.09c83.58,-0.1 165.07,18.98 232.01,48.44 118.4,52.07 79.12,71.24 181.58,-12.43l231.17 -189.72c30.66,-24.47 62.81,-42.63 61.68,-73.46 -1.41,-38.19 -117.27,-108.25 -152.27,-128.52 -200.18,-115.87 -428.96,-172.07 -672.85,-145.58 -574.62,62.41 -1052.03,588.31 -951.19,1250.56 83.69,549.54 629.57,1024.91 1297.39,886.06 307.71,-63.98 542.53,-260.5 668.12,-449.71 153.24,-230.88 218.41,-492.68 175.5,-775.46 -7.62,-50.18 -7.02,-71.84 -64.5,-71.84l-967.92 0c-46.1,0 -58.67,12.59 -58.67,58.37l0 382.21c0,63.88 34.39,57.02 92.55,56.9 110.89,-0.21 356.21,-5.85 439.1,1 -11.4,33.41 -59.96,99.07 -78.66,118.72 -103.49,108.73 -220.08,180.92 -389.91,194.22 -254.05,19.91 -431.39,-120.52 -524.35,-257.5 -243.18,-358.33 4.5,-891.65 481.22,-892.26z"/>
   <path class="fil1" d="M1730.26 1838.72c41.75,-19.01 123.09,-119.07 156.52,-163.78 161.28,-215.59 213.99,-462.23 183.41,-742.45l-921.66 -0.01 0.34 326.32 437.34 0c38.11,-0.01 101.96,-9.91 115.4,25.23 23.97,62.61 -123.73,251.89 -193.72,307.15 -11.57,9.14 -24.54,17.62 -36.79,29.93 15.09,22.29 244.1,197.71 259.16,217.61z"/>
   <path class="fil2" d="M215.76 595.46c64.81,60.29 156.87,127.06 225.99,186.24 13.48,11.53 20.96,19.41 36.2,27.75 22.32,-24.75 36.39,-94.52 147.2,-202.36 184.87,-179.93 473.39,-237.83 718.02,-131.48 94.07,40.89 31.25,51.37 201.09,-81.81l132.23 -111.53c-216.86,-161.58 -518.42,-246.99 -851.79,-162.49 -212.95,53.98 -368.02,169.69 -498.94,313.86 -22.15,24.39 -102.28,125.86 -110,161.82z"/>
   <path class="fil3" d="M274.42 1669.88c17.85,24.55 36.69,49.78 58.31,72.18 23.96,24.83 39.4,46.47 66.09,69.39 123.94,106.43 237.63,187.78 426.33,236.82 154.66,40.2 318.06,45.73 476.56,9.77 75.33,-17.09 133.67,-37.88 199.27,-67.31l127.67 -70.78c20.03,-13.43 25.33,-14.31 35.4,-29.12l-136.63 -109.34c-45.82,-37.58 -89.06,-74.57 -134.87,-110.84 -40.82,14.61 -73.1,33.4 -120.97,47.01 -229.95,65.37 -475.09,9.91 -639.03,-149.45 -86.07,-83.66 -85.27,-96.64 -144.92,-193.47 -19.66,5.01 -110.77,85.64 -135.55,105.91l-129.12 106.59 51.46 82.64z"/>
   <path class="fil4" d="M176.85 1507.06c22.75,-6.33 104.61,-80.9 138.23,-106.79l135.87 -112.98c-7.43,-62.29 -28,-77.47 -29.66,-193.41 -1.69,-117.67 19.14,-134.56 25.13,-200.73 -24.78,-12.67 -44.56,-32.97 -68.29,-52.75l-203.97 -165.68c-56.04,91.74 -90.15,286.61 -89.49,414.21 0.58,112.59 19.9,219.09 55.48,323.03 11.08,32.34 29.68,68.09 36.7,95.1z"/>
  </g>
 </g>
</svg>
